<?xml version="1.0" standalone="no"?>
<!DOCTYPE svg PUBLIC "-//W3C//DTD SVG 1.1//EN" "http://www.w3.org/Graphics/SVG/1.1/DTD/svg11.dtd" >
<svg xmlns="http://www.w3.org/2000/svg">
<metadata>
<json>
{
	"fontFamily": "elegant",
	"version": "Version 0.0",
	"fontId": "elegant",
	"psName": "elegant",
	"subFamily": "Regular",
	"fullName": "elegant",
	"description": "Generated by IcoMoon"
}
</json>
</metadata>
<defs>
<font id="elegant" horiz-adv-x="1024">
<font-face units-per-em="1024" ascent="960" descent="-64" />
<missing-glyph horiz-adv-x="1024" />
<glyph unicode="&#x20;" d="" horiz-adv-x="512" />
<glyph unicode="&#xe200;" d="M832 619.456v276.864h31.552c17.92 0 32.448 14.336 32.448 32s-14.528 32-32.448 32h-639.104c-17.92 0-32.448-14.336-32.448-32s14.528-32 32.448-32h31.552v-276.864c0-18.24 7.808-35.648 21.44-47.808l138.368-123.328-138.368-123.328c-13.632-12.16-21.44-29.568-21.44-47.808v-276.864h-31.552c-17.92 0-32.448-14.336-32.448-32s14.528-32 32.448-32h639.168c17.856 0 32.384 14.336 32.384 32s-14.528 32-32.448 32h-31.552v276.864c0 18.24-7.808 35.648-21.44 47.808l-138.368 123.328 138.368 123.328c13.632 12.16 21.44 29.568 21.44 47.808zM768 619.456l-192-171.136 192-171.136v-276.864h-448v276.864l192 171.136-192 171.136v276.864h448v-276.864zM704 712.128v56.192h-320v-56.192l160-142.592zM384 184.256v-119.936h320v119.936l-80.832 72.064h-158.336z" />
<glyph unicode="&#xe201;" d="M512 960.32c-282.752 0-512-229.248-512-512s229.248-512 512-512 512 229.248 512 512-229.248 512-512 512zM512 0.32c-247.040 0-448 200.96-448 448s200.96 448 448 448 448-200.96 448-448-200.96-448-448-448zM512 768.32c-176.704 0-320-143.296-320-320s143.296-320 320-320 320 143.296 320 320-143.296 320-320 320zM512 256.32c-105.856 0-192 86.144-192 192s86.144 192 192 192 192-86.144 192-192c0-105.856-86.144-192-192-192zM448 448.32c0-35.346 28.654-64 64-64s64 28.654 64 64c0 35.346-28.654 64-64 64-35.346 0-64-28.654-64-64z" />
<glyph unicode="&#xe202;" d="M544 896.32c-265.088 0-480-214.912-480-480s214.912-480 480-480 480 214.912 480 480-214.912 480-480 480zM894.016 640.32h-95.36c-18.56 58.368-44.032 109.504-74.752 150.528 69.632-33.6 128.576-85.888 170.112-150.528zM576 640.32v186.752c60.48-17.856 119.424-84.928 155.712-186.752h-155.712zM750.336 576.32c9.024-39.168 14.848-82.048 16.704-128h-191.040v128h174.336zM512 827.072v-186.752h-155.712c36.288 101.824 95.232 168.896 155.712 186.752zM512 576.32v-128h-191.040c1.856 45.952 7.68 88.832 16.704 128h174.336zM256.96 448.32h-127.36c3.456 44.992 13.76 88.128 30.464 128h112.64c-8.576-40.512-13.952-83.328-15.744-128zM256.96 384.32c1.792-44.672 7.168-87.488 15.744-128h-112.64c-16.704 39.872-27.008 83.008-30.464 128h127.36zM320.96 384.32h191.040v-128h-174.336c-9.024 39.168-14.848 82.048-16.704 128zM512 192.32v-186.752c-60.48 17.856-119.424 84.928-155.712 186.752h155.712zM576 5.568v186.752h155.712c-36.288-101.824-95.232-168.896-155.712-186.752zM576 256.32v128h191.040c-1.856-45.952-7.68-88.832-16.704-128h-174.336zM831.040 384.32h127.36c-3.456-44.992-13.76-88.128-30.464-128h-112.64c8.576 40.512 13.952 83.328 15.744 128zM831.040 448.32c-1.792 44.672-7.168 87.488-15.744 128h112.64c16.704-39.872 27.008-83.008 30.464-128h-127.36zM364.096 790.848c-30.656-41.024-56.192-92.16-74.752-150.528h-95.36c41.536 64.64 100.48 116.928 170.112 150.528zM193.984 192.32h95.36c18.56-58.368 44.032-109.504 74.752-150.528-69.632 33.6-128.576 85.888-170.112 150.528zM723.904 41.792c30.656 41.024 56.192 92.16 74.752 150.528h95.36c-41.536-64.64-100.48-116.928-170.112-150.528z" />
<glyph unicode="&#xe203;" d="M963.776 267.904c-174.272-174.208-457.856-174.336-632.128 0-84.352 84.288-130.752 196.544-130.752 316.096s46.464 231.808 130.688 316.032c12.48 12.48 12.48 32.768 0 45.248s-32.768 12.48-45.248 0c-96.384-96.32-149.44-224.64-149.44-361.28s53.12-265.024 149.44-361.344c81.344-81.408 183.616-128.96 289.664-143.872v-78.464h-96c-17.664 0-32-14.336-32-32s14.336-32 32-32h256c17.664 0 32 14.336 32 32s-14.336 32-32 32h-96v73.216c2.56-0.064 5.12-0.384 7.68-0.384 130.816 0 261.696 49.792 361.344 149.44 12.48 12.48 12.48 32.768 0 45.248s-32.768 12.544-45.248 0.064zM647.68 960.32c-207.872 0-376.32-168.512-376.32-376.32s168.512-376.32 376.32-376.32 376.32 168.448 376.32 376.32-168.512 376.32-376.32 376.32zM647.68 271.68c-172.224 0-312.32 140.096-312.32 312.32 0 172.224 140.096 312.32 312.32 312.32 172.224 0 312.32-140.096 312.32-312.32 0-172.224-140.096-312.32-312.32-312.32z" />
<glyph unicode="&#xe204;" d="M512 960.32c-282.752 0-512-229.248-512-512s229.248-512 512-512 512 229.248 512 512-229.248 512-512 512zM512 0.32c-247.040 0-448 200.96-448 448s200.96 448 448 448 448-200.96 448-448-200.96-448-448-448zM451.968 610.304c0 54.144-43.904 97.984-97.984 97.984s-97.984-43.84-97.984-97.984 43.904-97.984 97.984-97.984 97.984 43.904 97.984 97.984zM320 610.304c0 18.752 15.232 33.984 33.984 33.984s33.984-15.232 33.984-33.984-15.232-33.984-33.984-33.984-33.984 15.232-33.984 33.984zM670.016 388.288c-54.144 0-97.984-43.904-97.984-97.984s43.84-97.984 97.984-97.984 97.984 43.904 97.984 97.984-43.904 97.984-97.984 97.984zM670.016 256.32c-18.752 0-33.984 15.232-33.984 33.984s15.232 33.984 33.984 33.984 33.984-15.232 33.984-33.984-15.232-33.984-33.984-33.984zM726.656 662.976c-12.48 12.48-32.768 12.48-45.248 0l-384-384c-12.48-12.48-12.48-32.768 0-45.248 6.208-6.272 14.4-9.408 22.592-9.408s16.384 3.136 22.656 9.344l384 384c12.48 12.544 12.48 32.768 0 45.312z" />
<glyph unicode="&#xe205;" d="M494.4-61.184c5.76-1.664 11.712-2.496 17.6-2.496s11.84 0.832 17.6 2.496c396.096 113.152 454.4 513.536 429.952 709.504-4.032 31.936-31.296 56-63.552 56-9.152 0.704-64 10.176-64 128 0 16.96-6.72 33.28-18.752 45.248-13.824 13.824-93.248 82.752-301.248 82.752s-287.424-68.928-301.248-82.752c-12.032-11.968-18.752-28.288-18.752-45.248 0-117.824-54.848-127.296-65.856-128.064-32.256 0-57.664-24-61.696-56-24.448-195.904 33.92-596.288 429.952-709.44zM128 640.32c0 0 128 0 128 192 0 0 64 64 256 64s256-64 256-64c0-192 128-192 128-192s64-512-384-640c-448 128-384 640-384 640zM512 320.32c35.328 0 64 28.672 64 64v320c0 35.328-28.672 64-64 64s-64-28.672-64-64v-320c0-35.328 28.672-64 64-64zM448 192.32c0-35.346 28.654-64 64-64s64 28.654 64 64c0 35.346-28.654 64-64 64-35.346 0-64-28.654-64-64z" />
<glyph unicode="&#xe206;" d="M960 704.32h-192v128c0 35.328-28.672 64-64 64h-384c-35.328 0-64-28.672-64-64v-128h-192c-35.328 0-64-28.672-64-64v-576c0-35.328 28.672-64 64-64h896c35.328 0 64 28.672 64 64v576c0 35.328-28.672 64-64 64zM64 640.32h896v-576h-896v576zM320 832.32h384v-128h-384v128z" />
<glyph unicode="&#xe207;" d="M64 0.32c0-35.328 28.672-64 64-64h768c35.328 0 64 28.672 64 64v896c0 35.328-28.672 64-64 64h-768c-35.328 0-64-28.672-64-64v-896zM128 896.32h768v-896h-768v896zM256 384.32h128v-256h-128zM448 704.32h128v-576h-128zM640 576.32h128v-448h-128z" />
<glyph unicode="&#xe208;" d="M960 320.32v128c0 35.328-28.672 64-64 64h-320v128h192c35.328 0 64 28.672 64 64v64c0 35.328-28.672 64-64 64h-448c-35.328 0-64-28.672-64-64v-64c0-35.328 28.672-64 64-64h192v-128h-320c-35.328 0-64-28.672-64-64v-128c-35.328 0-64-28.672-64-64v-128c0-35.328 28.672-64 64-64h64c35.328 0 64 28.672 64 64v64 64c0 35.328-28.672 64-64 64v128h320v-128c-35.328 0-64-28.672-64-64v-64-64c0-35.328 28.672-64 64-64h64c35.328 0 64 28.672 64 64v64 64c0 35.328-28.672 64-64 64v128h320v-128c-35.328 0-64-28.672-64-64v-64-64c0-35.328 28.672-64 64-64h64c35.328 0 64 28.672 64 64v128c0 35.328-28.672 64-64 64zM320 768.32h448v-64h-448v64zM192 192.32v-64h-64v128h64v-64zM576 128.32h-64v128h64v-128zM896 192.32v64h64v-128h-64v64z" />
<glyph unicode="&#xe209;" d="M288.96 432.32c9.472 0 18.944 4.224 25.28 12.352l140.928 181.44 96.512-113.344c6.144-7.104 13.056-10.24 24.512-11.264 9.28 0.064 18.24 4.16 24.32 11.456l224 266.816c11.392 13.504 9.6 33.664-3.968 45.056-13.504 11.456-33.664 9.536-45.056-3.968l-199.68-237.824-97.408 114.56c-6.336 7.296-17.984 10.688-25.088 11.2-9.664-0.256-18.688-4.736-24.576-12.352l-165.056-212.48c-10.88-13.952-8.32-34.112 5.632-44.928 5.824-4.544 12.736-6.72 19.648-6.72zM991.296 960.32h-894.592c-18.048 0-32.704-14.336-32.704-32s14.656-32 32.704-32h31.296v-576c0-35.328 28.672-64 64-64h320v-99.904l-181.504-164.416c-13.056-11.84-14.080-32.064-2.176-45.184 11.968-13.056 32.192-14.080 45.184-2.176l138.496 125.44v-101.76c0-17.664 14.336-32 32-32s32 14.336 32 32v101.76l138.496-125.44c6.144-5.568 13.824-8.32 21.504-8.32 8.704 0 17.344 3.584 23.68 10.496 11.904 13.12 10.88 33.344-2.176 45.184l-181.504 164.416v99.904h320c35.328 0 64 28.672 64 64v576h31.296c18.048 0 32.704 14.336 32.704 32s-14.656 32-32.704 32zM896 320.32h-704v576h704v-576z" />
<glyph unicode="&#xe20a;" d="M128 768.32v-512l128-320 128 320-0.32 0.128c0.192 0.192 0.128 0.512 0.32 0.704v511.168 64c0 70.72-57.28 128-128 128s-128-57.28-128-128v-64zM192 832.32c0 35.264 28.736 64 64 64s64-28.736 64-64v-64h-128v64zM256 108.672l-46.72 116.736 46.72 23.36 46.72-23.36-0.96-2.432-12.8-32-32.96-82.304zM320 288.32l-64 32-64-32v369.728 39.232 7.040h128v-7.040-39.232-369.728zM805.888 769.664l-61.312 158.656-0.576-0.192c-4.48 18.304-20.288 32.192-40 32.192-21.184 0-37.888-15.872-40.832-36.224l-1.152 0.256-59.904-154.688-26.112-65.344v-640c0-70.72 57.28-128 128-128s128 57.28 128 128c35.328 0 64 28.672 64 64v192c0 35.328-28.672 64-64 64v320l-26.112 65.344zM768 320.32v-192-64c0-35.264-28.736-64-64-64s-64 28.736-64 64v640h128v-320-64zM737.472 768.32h-66.944l33.472 83.648 33.472-83.648z" />
<glyph unicode="&#xe20b;" d="M828.48 640.192c1.792 26.752 2.88 48.448 3.456 61.44 0.704 17.408-5.696 34.368-17.728 46.976s-28.8 19.712-46.208 19.712h-704c-17.408 0-34.112-7.104-46.208-19.712s-18.432-29.568-17.728-46.976c3.52-84.544 27.328-511.872 149.248-620.992 11.712-10.496 26.944-16.32 42.688-16.32h448c15.744 0 30.976 5.824 42.688 16.32 38.208 34.24 66.816 99.712 88.128 176.128 31.68 0.128 53.568 0.192 56.128 0.192 108.864 0 197.12 79.36 197.12 191.68-0.064 152.512-131.904 190.976-195.584 191.552zM640 128.32h-448c-107.968 96.64-128 576-128 576h704c0 0-20.032-479.36-128-576zM826.88 320.96l-20.16-0.064c-5.76 0-12.608-0.064-20.352-0.064 19.072 87.616 30.528 181.12 37.12 255.488h3.392c5.44 0 133.12-1.472 133.12-127.68 0-73.984-56-127.68-133.12-127.68z" />
<glyph unicode="&#xe20c;" d="M156.8 256.192c0 0 243.904 0 291.2 0v-166.016c-2.24-89.792 17.984-153.856 94.016-153.856 81.984 0 97.984 68.032 97.984 68.032 14.976 240.96 256 315.84 256 315.84v512l-93.504 3.968c-242.112 0-96.832 124.032-494.656 124.032-302.080 0-307.84-265.856-307.84-448s83.008-256 156.8-256zM307.84 896.192c202.112 0 244.928-32.192 282.752-60.608 47.744-35.904 93.696-63.36 208.768-63.36 0.128 0 0.256 0 0.384 0l32.256-1.344v-407.616c-79.808-37.312-238.4-137.088-255.296-346.752-2.496-5.12-10.752-16.192-34.688-16.192-5.696 0-13.056 0.64-16.192 3.84-2.624 2.688-15.488 19.264-13.824 86.016v166.016 64h-355.2c-46.144 0-92.8 65.92-92.8 192 0 249.024 38.848 384 243.84 384zM992 896.192c-17.664 0-32-14.336-32-32v-573.312c0-17.664 14.336-32 32-32s32 14.336 32 32v573.312c0 17.664-14.336 32-32 32z" />
<glyph unicode="&#xe20d;" d="M867.2 640.32c0 0-243.904 0-291.2 0v166.016c2.304 89.856-17.984 153.856-94.016 153.856-81.984 0-97.984-68.032-97.984-68.032-14.976-240.96-256-315.84-256-315.84v-512l93.504-3.968c242.112 0 96.832-124.032 494.656-124.032 302.080 0 307.84 265.856 307.84 448s-83.008 256-156.8 256zM716.16 0.32c-202.112 0-244.928 32.192-282.752 60.608-47.808 35.904-93.696 63.36-208.768 63.36-0.128 0-0.256 0-0.384 0l-32.256 1.344v407.68c79.808 37.248 238.4 137.088 255.296 346.688 2.496 5.12 10.752 16.192 34.688 16.192 5.696 0 13.056-0.64 16.192-3.84 2.624-2.624 15.488-19.264 13.824-86.016v-166.016-64h355.2c46.144 0 92.8-65.92 92.8-192 0-249.024-38.848-384-243.84-384zM32 0.32c17.664 0 32 14.336 32 32v573.312c0 17.664-14.336 32-32 32s-32-14.336-32-32v-573.312c0-17.664 14.336-32 32-32z" />
<glyph unicode="&#xe20e;" d="M359.936 210.112c-28.8 0-55.616 11.264-75.52 31.68-54.784 56.448-122.688 31.808-138.752-42.944-25.92-120.96-23.424-198.464 7.68-236.992 17.856-22.144 38.848-23.808 44.8-23.808l667.84-1.728c86.912 0 157.696 68.096 157.696 151.808v419.2l0.192 20.032c0.576 51.52 1.216 104.768-26.176 132.416-18.112 18.368-44.224 22.272-73.792 9.664-54.656-23.36-113.92-26.496-190.912-11.392-19.264 3.84-26.88 10.112-26.624 9.28 0 0.064 1.28 5.696 12.864 15.936 34.432 30.528 54.208 73.408 54.208 117.888-0.064 87.808-74.24 159.168-165.44 159.168-91.136 0-165.312-71.36-165.312-159.104 0-43.648 19.968-84.608 59.328-121.92 1.856-1.856 5.632-5.44 8.576-8.768-6.4-3.136-19.136-7.744-43.456-11.84-63.616-10.688-126.272 4.416-174.208 15.744-53.504 12.608-87.552 16.768-107.328-3.328-22.144-22.4-70.208-90.944-39.744-244.928 4.608-23.552 18.816-95.232 73.28-95.232 26.944 0 47.104 19.52 59.584 31.488 79.232 76.224 182.592 21.696 182.592-57.216-0.064-52.416-45.504-95.104-101.376-95.104zM359.936 464.384c-44.8 0-87.040-18.752-127.232-57.344-2.176-2.176-7.040-6.784-10.944-9.728-3.136 5.376-8.32 17.152-13.12 41.28-23.040 116.48 6.272 167.68 18.816 183.36 10.816-0.32 30.208-4.928 50.816-9.792 39.744-9.344 89.216-20.992 143.872-20.992 19.2 0 37.952 1.472 55.616 4.416 36.608 6.144 86.656 18.752 98.24 56.704 10.624 34.944-17.856 61.952-30.144 73.536-26.368 25.024-39.168 49.6-39.168 75.392 0 52.416 45.44 95.104 101.312 95.104s101.376-42.688 101.376-95.104c0-26.496-11.584-51.328-32.576-69.888-35.968-31.744-37.504-60.48-32.448-78.976 7.616-28.16 35.456-48.96 76.16-56.96 89.6-17.536 162.176-12.992 228.48 15.232 2.048 0.96 3.648 1.408 4.48 1.856 7.104-14.336 6.592-61.12 6.336-84.352l-0.192-440c0-48.384-41.984-87.808-93.632-87.808l-661.76 0.576c-0.32 0.256-30.080 26.368 3.968 184.512 3.52 16.576 10.048 23.936 11.712 24.704 0 0 6.4-0.32 18.56-12.864 32-32.96 75.136-51.072 121.344-51.072 91.136 0 165.312 71.36 165.312 159.104s-74.048 159.104-165.184 159.104z" />
<glyph unicode="&#xe20f;" d="M960 768.32h-320v-128c0-35.328-28.672-64-64-64h32c52.992 0 96 43.008 96 96 0 12.16-0.192 22.72-0.576 32h256.576v-704h-896v704h256.576c-0.384-9.28-0.576-19.84-0.576-32 0-52.992 43.008-96 96-96h32c-35.328 0-64 28.672-64 64v128h-320c-35.328 0-64-28.672-64-64v-704c0-35.328 28.672-64 64-64h896c35.328 0 64 28.672 64 64v704c0 35.328-28.672 64-64 64zM869.312 320.32h-389.312c-17.664 0-32-14.336-32-32s14.336-32 32-32h389.312c17.664 0 32 14.336 32 32s-14.336 32-32 32zM869.312 192.32h-389.312c-17.664 0-32-14.336-32-32s14.336-32 32-32h389.312c17.664 0 32 14.336 32 32s-14.336 32-32 32zM480 384.32h389.312c17.664 0 32 14.336 32 32s-14.336 32-32 32h-389.312c-17.664 0-32-14.336-32-32s14.336-32 32-32zM178.56 435.008c0-42.698 34.614-77.312 77.312-77.312 42.698 0 77.312 34.614 77.312 77.312 0 42.698-34.614 77.312-77.312 77.312-42.698 0-77.312-34.614-77.312-77.312zM257.536 326.784c-69.888 0-126.464-75.904-126.464-169.6s252.928-93.632 252.928 0-56.64 169.6-126.464 169.6zM384 640.32c0-35.328 28.672-64 64-64h128c35.328 0 64 28.672 64 64v128 128c0 35.328-28.672 64-64 64h-128c-35.328 0-64-28.672-64-64v-128-128zM576 640.32h-128v256h128v-256z" />
<glyph unicode="&#xe210;" d="M960 768.32h-896c-35.328 0-64-28.672-64-64v-576c0-35.328 28.672-64 64-64h896c35.328 0 64 28.672 64 64v576c0 35.328-28.672 64-64 64zM64 704.32h896v-576h-896v576zM869.312 448.32h-389.312c-17.664 0-32-14.336-32-32s14.336-32 32-32h389.312c17.664 0 32 14.336 32 32s-14.336 32-32 32zM869.312 320.32h-389.312c-17.664 0-32-14.336-32-32s14.336-32 32-32h389.312c17.664 0 32 14.336 32 32s-14.336 32-32 32zM869.312 576.32h-389.312c-17.664 0-32-14.336-32-32s14.336-32 32-32h389.312c17.664 0 32 14.336 32 32s-14.336 32-32 32zM178.56 563.008c0-42.698 34.614-77.312 77.312-77.312 42.698 0 77.312 34.614 77.312 77.312 0 42.698-34.614 77.312-77.312 77.312-42.698 0-77.312-34.614-77.312-77.312zM257.536 454.784c-69.888 0-126.464-75.904-126.464-169.6s252.928-93.632 252.928 0-56.64 169.6-126.464 169.6z" />
<glyph unicode="&#xe211;" d="M64 0.32h576c35.328 0 64 28.672 64 64v86.4c13.632 6.528 26.368 14.336 38.336 23.36l196.416-196.416c6.272-6.272 14.464-9.344 22.656-9.344s16.384 3.136 22.656 9.344c12.48 12.48 12.48 32.768 0 45.248l-196.544 196.544c27.584 37.248 44.48 82.944 44.48 132.864 0 89.216-52.544 165.568-128 201.6v342.4c0 35.328-28.672 64-64 64h-576c-35.328 0-64-28.672-64-64v-832c0-35.328 28.672-64 64-64zM608 192.32c-88.192 0-160 71.808-160 160s71.808 160 160 160 160-71.808 160-160-71.808-160-160-160zM64 896.32h576v-320h-470.848c-22.72 0-41.152-14.336-41.152-32s18.432-32 41.152-32h282.432c-34.368-33.536-57.152-78.208-64.384-128h-227.2c-17.664 0-32-14.336-32-32s14.336-32 32-32h227.2c15.68-108.416 108.032-192 220.8-192 10.944 0 21.44 1.728 32 3.2v-67.2h-576v832zM160 704.32h384c17.664 0 32 14.336 32 32s-14.336 32-32 32h-384c-17.664 0-32-14.336-32-32s14.336-32 32-32z" />
<glyph unicode="&#xe212;" d="M960 832.32c-3.968 62.656-57.28 128-128 128h-640c-70.72 0-124.032-65.344-128-128l-64-685.312c0-3.008 0.704-6.72 0.896-9.92-0.192-2.944-0.896-5.76-0.896-8.768v-64c0-70.72 57.28-128 128-128h768c70.72 0 128 57.28 128 128v64c0 3.008-0.704 5.824-0.896 8.704 0.192 3.264 0.896 6.976 0.896 9.984l-64 685.312zM64 64.32v64c0 35.264 28.736 64 64 64h768c35.264 0 64-28.736 64-64v-64c0-35.264-28.736-64-64-64h-768c-35.264 0-64 28.736-64 64zM127.872 828.224c1.984 31.488 30.464 68.096 64.128 68.096h640c33.664 0 62.144-36.608 64.256-69.952l54.4-582.784c-16.576 7.936-35.008 12.736-54.656 12.736h-768c-19.648 0-38.080-4.8-54.72-12.736l54.592 584.64zM832 96.32c0-17.673 14.327-32 32-32s32 14.327 32 32c0 17.673-14.327 32-32 32-17.673 0-32-14.327-32-32zM704 96.32c0-17.673 14.327-32 32-32s32 14.327 32 32c0 17.673-14.327 32-32 32-17.673 0-32-14.327-32-32zM160 64.32h448c17.664 0 32 14.336 32 32s-14.336 32-32 32h-448c-17.664 0-32-14.336-32-32s14.336-32 32-32z" />
<glyph unicode="&#xe213;" d="M768 960.32h-704c-35.328 0-64-28.672-64-64v-896c0-35.328 28.672-64 64-64h896c35.328 0 64 28.672 64 64v768l-192 192h-64zM768 896.32v-256h-128v256h128zM576 896.32v-256h-320v256h320zM256 0.32v384h512v-384h-512zM960 0.32h-128v384c0 35.328-28.672 64-64 64h-512c-35.328 0-64-28.672-64-64v-384h-128v896h128v-256c0-35.328 28.672-64 64-64h512c35.328 0 64 28.672 64 64v229.504l128-128v-741.504z" />
<glyph unicode="&#xe214;" d="M640 832.32h64v-64h-64zM768 832.32h64v-64h-64zM640 704.32h64v-64h-64zM768 704.32h64v-64h-64zM640 576.32h64v-64h-64zM768 576.32h64v-64h-64zM640 448.32h64v-64h-64zM768 448.32h64v-64h-64zM640 320.32h64v-64h-64zM768 320.32h64v-64h-64zM896 960.32h-320c-35.328 0-64-28.672-64-64v-192h-320c-35.328 0-64-28.672-64-64v-640c0-35.328 28.672-64 64-64h704c35.328 0 64 28.672 64 64v896c0 35.328-28.672 64-64 64zM384 0.32h-64v128h64v-128zM448 0.32v128 64h-192v-64-128h-64v640h320v-640h-64zM768 0.32h-64v128h64v-128zM896 0.32h-64v128 64h-192v-192h-64v640 256h320v-896zM256 576.32h64v-64h-64zM384 576.32h64v-64h-64zM256 448.32h64v-64h-64zM384 448.32h64v-64h-64zM256 320.32h64v-64h-64zM384 320.32h64v-64h-64z" />
<glyph unicode="&#xe215;" d="M192-63.68h640c35.328 0 64 28.672 64 64v896c0 35.328-28.672 64-64 64h-640c-35.328 0-64-28.672-64-64v-896c0-35.328 28.672-64 64-64zM192 896.32h640v-896h-640v896zM704 832.32h-384c-35.328 0-64-28.672-64-64v-64c0-35.328 28.672-64 64-64h384c35.328 0 64 28.672 64 64v64c0 35.328-28.672 64-64 64zM704 704.32h-384v64h384v-64zM256 512.32c0-35.346 28.654-64 64-64s64 28.654 64 64c0 35.346-28.654 64-64 64-35.346 0-64-28.654-64-64zM256 320.32c0-35.346 28.654-64 64-64s64 28.654 64 64c0 35.346-28.654 64-64 64-35.346 0-64-28.654-64-64zM256 128.32c0-35.346 28.654-64 64-64s64 28.654 64 64c0 35.346-28.654 64-64 64-35.346 0-64-28.654-64-64zM448 512.32c0-35.346 28.654-64 64-64s64 28.654 64 64c0 35.346-28.654 64-64 64-35.346 0-64-28.654-64-64zM448 320.32c0-35.346 28.654-64 64-64s64 28.654 64 64c0 35.346-28.654 64-64 64-35.346 0-64-28.654-64-64zM448 128.32c0-35.346 28.654-64 64-64s64 28.654 64 64c0 35.346-28.654 64-64 64-35.346 0-64-28.654-64-64zM640 512.32c0-35.346 28.654-64 64-64s64 28.654 64 64c0 35.346-28.654 64-64 64-35.346 0-64-28.654-64-64zM640 320.32c0-35.346 28.654-64 64-64s64 28.654 64 64c0 35.346-28.654 64-64 64-35.346 0-64-28.654-64-64zM640 128.32c0-35.346 28.654-64 64-64s64 28.654 64 64c0 35.346-28.654 64-64 64-35.346 0-64-28.654-64-64z" />
<glyph unicode="&#xe216;" d="M960 512.32v192c0 35.328-28.672 64-64 64h-19.072l-21.568 133.12c-1.344 8.384-5.952 15.872-12.864 20.8-6.784 4.992-15.36 7.104-23.808 5.632l-695.808-112.896c-17.472-2.816-29.312-19.264-26.432-36.736l1.6-9.92h-34.048c-35.328 0-64-28.672-64-64v-704c0-35.328 28.672-64 64-64h832c35.328 0 64 28.672 64 64v192c35.328 0 64 28.672 64 64v192c0 35.328-28.672 64-64 64zM64 704.32h832v-192h-256c-35.328 0-64-28.672-64-64v-192c0-35.328 28.672-64 64-64h256v-192h-832v704zM234.752 768.32l562.56 91.328 14.784-91.328h-577.344zM640 256.32v192h320v-192h-320zM704 352.32c0-17.673 14.327-32 32-32s32 14.327 32 32c0 17.673-14.327 32-32 32-17.673 0-32-14.327-32-32z" />
<glyph unicode="&#xe217;" d="M544 896.32c-265.088 0-480-214.912-480-480s214.912-480 480-480 480 214.912 480 480-214.912 480-480 480zM544 0.32c-229.376 0-416 186.624-416 416s186.624 416 416 416 416-186.624 416-416-186.624-416-416-416zM598.848 640.32c57.984 0 105.152-43.072 105.152-96 0-17.664 14.336-32 32-32s32 14.336 32 32c0 88.256-75.904 160-169.152 160h-22.848v32c0 17.664-14.336 32-32 32s-32-14.336-32-32v-32h-22.848c-93.248 0-169.152-71.744-169.152-160s75.904-160 169.152-160h22.848v-192h-22.848c-57.984 0-105.152 43.072-105.152 96 0 17.664-14.336 32-32 32s-32-14.336-32-32c0-88.256 75.904-160 169.152-160h22.848v-32c0-17.664 14.336-32 32-32s32 14.336 32 32v32h22.848c93.248 0 169.152 71.744 169.152 160s-75.904 160-169.152 160h-22.848v192h22.848zM598.848 384.32c57.984 0 105.152-43.072 105.152-96s-47.168-96-105.152-96h-22.848v192h22.848zM512 448.32h-22.848c-57.984 0-105.152 43.072-105.152 96s47.168 96 105.152 96h22.848v-192z" />
<glyph unicode="&#xe218;" d="M960 640.32h-64v256c0 35.328-28.672 64-64 64h-640c-35.328 0-64-28.672-64-64v-256h-64c-35.328 0-64-28.672-64-64v-320c0-35.328 28.672-64 64-64h64v-192c0-35.328 28.672-64 64-64h640c35.328 0 64 28.672 64 64v192h64c35.328 0 64 28.672 64 64v320c0 35.328-28.672 64-64 64zM192 320.32h640v-320h-640v320zM832 384.32h-640c-35.328 0-64-28.672-64-64v-64h-64v320h896v-320h-64v64c0 35.328-28.672 64-64 64zM192 896.32h640v-256h-640v256zM704 480.32c0-17.673 14.327-32 32-32s32 14.327 32 32c0 17.673-14.327 32-32 32-17.673 0-32-14.327-32-32zM128 480.32c0-17.673 14.327-32 32-32s32 14.327 32 32c0 17.673-14.327 32-32 32-17.673 0-32-14.327-32-32zM832 480.32c0-17.673 14.327-32 32-32s32 14.327 32 32c0 17.673-14.327 32-32 32-17.673 0-32-14.327-32-32zM768 224.32c0 17.664-14.336 32-32 32h-448c-17.664 0-32-14.336-32-32s14.336-32 32-32h448c17.664 0 32 14.336 32 32zM736 128.32h-448c-17.664 0-32-14.336-32-32s14.336-32 32-32h448c17.664 0 32 14.336 32 32s-14.336 32-32 32z" />
<glyph unicode="&#xe219;" d="M544 64.32c17.664 0 32 14.336 32 32v626.752l137.344-137.344c12.48-12.48 32.768-12.48 45.248 0s12.48 32.768 0 45.248l-192 192c-2.944 2.944-6.464 5.248-10.368 6.848-7.808 3.264-16.64 3.264-24.448 0-3.84-1.536-7.232-3.84-10.176-6.72-0.064-0.064-0.128-0.064-0.256-0.128l-192-192c-12.48-12.48-12.48-32.768 0-45.248s32.768-12.48 45.248 0l137.408 137.344v-626.752c0-17.664 14.336-32 32-32z" />
<glyph unicode="&#xe21a;" d="M544 832.32c-17.664 0-32-14.336-32-32v-626.752l-137.344 137.344c-12.48 12.48-32.768 12.48-45.248 0s-12.48-32.768 0-45.248l192-192c0.064-0.064 0.192-0.064 0.256-0.192 2.88-2.816 6.336-5.184 10.112-6.72 7.808-3.264 16.64-3.264 24.448 0 3.904 1.6 7.424 3.968 10.368 6.912l192 192c12.48 12.48 12.48 32.768 0 45.248s-32.768 12.48-45.248 0l-137.344-137.344v626.752c0 17.664-14.336 32-32 32z" />
<glyph unicode="&#xe21b;" d="M128 480.192c0-4.096 0.896-8.192 2.496-12.096 1.536-3.776 3.84-7.168 6.656-10.048 0.064-0.128 0.128-0.256 0.192-0.384l192-192c12.48-12.48 32.768-12.48 45.248 0s12.48 32.768 0 45.248l-137.344 137.408h626.752c17.664 0 32 14.336 32 32s-14.336 32-32 32h-626.752l137.344 137.344c12.48 12.48 12.48 32.768 0 45.248s-32.768 12.48-45.248 0l-192-192c-0.064-0.064-0.128-0.256-0.192-0.32-2.816-2.88-5.12-6.272-6.656-10.048-1.664-3.904-2.496-8.064-2.496-12.224v0c0-0.064 0-0.064 0-0.128z" />
<glyph unicode="&#xe21c;" d="M128 480.32c0-17.664 14.336-32 32-32h626.752l-137.344-137.344c-12.48-12.48-12.48-32.768 0-45.248s32.768-12.48 45.248 0l192 192c2.944 2.944 5.312 6.464 6.912 10.368 1.536 3.904 2.432 8 2.432 12.096 0 0.064 0 0.064 0 0.128v0c0 4.16-0.832 8.32-2.496 12.224-1.6 3.904-3.968 7.424-6.912 10.368l-192 192c-12.48 12.48-32.768 12.48-45.248 0s-12.48-32.768 0-45.248l137.408-137.344h-626.752c-17.664 0-32-14.336-32-32z" />
<glyph unicode="&#xe21d;" d="M128 480.32c0-17.664 14.336-32 32-32s32 14.336 32 32v242.752l649.344-649.344c12.48-12.48 32.768-12.48 45.248 0s12.48 32.768 0 45.248l-649.344 649.344h242.752c17.664 0 32 14.336 32 32s-14.336 32-32 32h-320c-4.16 0-8.32-0.832-12.224-2.496-3.84-1.536-7.232-3.84-10.176-6.72-0.064-0.064-0.128-0.064-0.256-0.128-0.064-0.128-0.128-0.32-0.192-0.384-2.816-2.88-5.12-6.272-6.656-10.048-1.664-3.904-2.496-8.064-2.496-12.224v0-320z" />
<glyph unicode="&#xe21e;" d="M137.344 73.664c12.48-12.48 32.768-12.48 45.248 0l649.408 649.408v-242.752c0-17.664 14.336-32 32-32s32 14.336 32 32v320 0c0 4.16-0.832 8.32-2.496 12.224-3.264 7.808-9.472 14.080-17.28 17.28-3.904 1.664-8.064 2.496-12.224 2.496h-320c-17.664 0-32-14.336-32-32s14.336-32 32-32h242.752l-649.408-649.344c-12.48-12.544-12.48-32.768 0-45.312z" />
<glyph unicode="&#xe21f;" d="M864 448.32c-17.664 0-32-14.336-32-32v-242.752l-649.344 649.408c-12.48 12.48-32.768 12.48-45.248 0-12.48-12.48-12.48-32.768 0-45.248l649.344-649.408h-242.752c-17.664 0-32-14.336-32-32s14.336-32 32-32h320c4.16 0 8.32 0.832 12.224 2.496 7.808 3.264 14.080 9.472 17.28 17.28 1.6 3.904 2.496 8 2.496 12.096 0 0.064 0 0.064 0 0.128v320c0 17.664-14.336 32-32 32z" />
<glyph unicode="&#xe220;" d="M160 448.32c-17.664 0-32-14.336-32-32v-320c0-0.064 0-0.064 0-0.128 0-4.16 0.832-8.256 2.432-12.096 1.536-3.776 3.84-7.168 6.656-10.048 0.128-0.128 0.128-0.256 0.256-0.384 0.064-0.064 0.192-0.064 0.256-0.192 2.88-2.816 6.336-5.184 10.112-6.72 3.968-1.6 8.128-2.432 12.288-2.432h320c17.664 0 32 14.336 32 32s-14.336 32-32 32h-242.752l649.408 649.344c12.48 12.48 12.48 32.768 0 45.248s-32.768 12.48-45.248 0l-649.408-649.344v242.752c0 17.664-14.336 32-32 32z" />
<glyph unicode="&#xe221;" d="M649.344 777.664c12.48-12.48 32.768-12.48 45.248 0s12.48 32.768 0 45.248l-128 128c-2.944 3.008-6.464 5.312-10.368 6.912-7.808 3.264-16.64 3.264-24.448 0-3.84-1.536-7.232-3.84-10.176-6.72-0.064-0.064-0.128-0.064-0.256-0.128l-128-128c-12.48-12.48-12.48-32.768 0-45.248s32.768-12.48 45.248 0l73.408 73.344v-805.504l-73.344 73.344c-12.48 12.48-32.768 12.48-45.248 0s-12.48-32.768 0-45.248l128-128c0.064-0.064 0.192-0.064 0.256-0.192 2.88-2.816 6.336-5.184 10.112-6.72 7.808-3.264 16.64-3.264 24.448 0 3.904 1.6 7.424 3.968 10.368 6.912l128 128c12.48 12.48 12.48 32.768 0 45.248s-32.768 12.48-45.248 0l-73.344-73.344v805.504l73.344-73.408z" />
<glyph unicode="&#xe222;" d="M584.96-54.656c6.272-6.272 14.528-9.408 22.72-9.344 8.256 0 16.448 3.072 22.72 9.344l123.264 123.264c12.48 12.48 12.48 32.768 0 45.248s-32.768 12.48-45.248 0l-68.416-68.416v562.56c0 17.664-14.336 32-32 32s-32-14.336-32-32v-563.2l-73.728 73.728c-12.48 12.48-32.768 12.48-45.248 0s-12.48-32.768 0-45.248l127.936-127.936zM416 256c17.664 0 32 14.336 32 32v563.2l73.728-73.728c12.48-12.48 32.768-12.48 45.248 0s12.48 32.768 0 45.248l-127.936 127.936c-6.272 6.272-14.464 9.344-22.72 9.344s-16.448-3.072-22.72-9.344l-123.264-123.264c-12.48-12.48-12.48-32.768 0-45.248s32.768-12.48 45.248 0l68.416 68.416v-562.56c0-17.664 14.336-32 32-32z" />
<glyph unicode="&#xe223;" d="M177.856 206.336c12.48 12.48 12.48 32.768 0 45.248l-68.736 68.736h562.88c17.664 0 32 14.336 32 32s-14.336 32-32 32h-562.88l73.408 73.408c12.48 12.48 12.48 32.768 0 45.248s-32.768 12.48-45.248 0l-127.936-127.936c-6.272-6.272-9.344-14.464-9.344-22.72s3.072-16.448 9.344-22.72l123.264-123.264c12.544-12.544 32.768-12.544 45.248 0zM1014.656 566.4l-123.264 123.264c-12.48 12.48-32.768 12.48-45.248 0s-12.48-32.768 0-45.248l68.736-68.736h-562.88c-17.664 0-32-14.336-32-32s14.336-32 32-32h562.88l-73.408-73.408c-12.48-12.48-12.48-32.768 0-45.248s32.768-12.48 45.248 0l127.936 127.936c6.272 6.272 9.344 14.464 9.344 22.72s-3.072 16.448-9.344 22.72z" />
<glyph unicode="&#xe224;" d="M1021.504 428.544c-1.6 3.904-3.968 7.424-6.912 10.368l-128 128c-12.48 12.48-32.768 12.48-45.248 0s-12.48-32.768 0-45.248l73.408-73.344h-805.504l73.344 73.344c12.48 12.48 12.48 32.768 0 45.248s-32.768 12.48-45.248 0l-128-128c-0.064-0.064-0.128-0.256-0.192-0.32-2.816-2.88-5.12-6.272-6.656-10.048-1.664-3.904-2.496-8.064-2.496-12.224v0c0-0.064 0-0.064 0-0.128 0-4.096 0.896-8.192 2.496-12.096 1.536-3.776 3.84-7.168 6.656-10.048 0.064-0.128 0.128-0.256 0.192-0.384l128-128c12.48-12.48 32.768-12.48 45.248 0s12.48 32.768 0 45.248l-73.344 73.408h805.504l-73.344-73.344c-12.48-12.48-12.48-32.768 0-45.248s32.768-12.48 45.248 0l128 128c2.944 2.944 5.312 6.464 6.912 10.368 1.536 3.904 2.432 8 2.432 12.096 0 0.064 0 0.064 0 0.128v0c0 4.16-0.832 8.32-2.496 12.224z" />
<glyph unicode="&#xe225;" d="M160 448.32c-17.664 0-32-14.336-32-32v-320c0-0.064 0-0.064 0-0.128 0-4.16 0.832-8.256 2.432-12.096 1.536-3.776 3.84-7.168 6.656-10.048 0.128-0.128 0.128-0.256 0.256-0.384 0.064-0.064 0.192-0.064 0.256-0.192 2.88-2.816 6.336-5.184 10.112-6.72 3.968-1.6 8.128-2.432 12.288-2.432h320c17.664 0 32 14.336 32 32s-14.336 32-32 32h-242.752l594.752 594.752v-242.752c0-17.664 14.336-32 32-32s32 14.336 32 32v320 0c0 4.16-0.832 8.32-2.496 12.224-3.264 7.808-9.472 14.080-17.28 17.28-3.904 1.664-8.064 2.496-12.224 2.496h-320c-17.664 0-32-14.336-32-32s14.336-32 32-32h242.752l-594.752-594.752v242.752c0 17.664-14.336 32-32 32z" />
<glyph unicode="&#xe226;" d="M950.656 886.976c-12.48 12.48-32.768 12.48-45.248 0l-265.408-265.408v178.752c0 17.664-14.336 32-32 32s-32-14.336-32-32v-256c0-0.064 0-0.064 0-0.128 0-4.096 0.896-8.192 2.496-12.096 1.536-3.776 3.84-7.168 6.656-10.048 0.064-0.128 0.128-0.256 0.192-0.384 0.128-0.064 0.192-0.064 0.256-0.128 2.88-2.816 6.336-5.184 10.112-6.72 3.968-1.664 8.128-2.496 12.288-2.496h256c17.664 0 32 14.336 32 32s-14.336 32-32 32h-178.752l265.344 265.344c12.544 12.544 12.544 32.768 0.064 45.312zM73.344 9.664c12.48-12.48 32.768-12.48 45.248 0l265.408 265.408v-178.752c0-17.664 14.336-32 32-32s32 14.336 32 32v256 0c0 4.16-0.832 8.32-2.496 12.224-3.264 7.808-9.472 14.080-17.28 17.28-3.904 1.664-8.064 2.496-12.224 2.496h-256c-17.664 0-32-14.336-32-32s14.336-32 32-32h178.752l-265.344-265.344c-12.544-12.544-12.544-32.768-0.064-45.312z" />
<glyph unicode="&#xe227;" d="M957.504 876.544c-3.264 7.808-9.472 14.080-17.28 17.28-3.904 1.664-8.064 2.496-12.224 2.496h-256c-17.664 0-32-14.336-32-32s14.336-32 32-32h178.752l-265.408-265.344c-12.48-12.48-12.48-32.768 0-45.248s32.768-12.48 45.248 0l265.408 265.344v-178.752c0-17.664 14.336-32 32-32s32 14.336 32 32v256 0c0 4.16-0.832 8.32-2.496 12.224zM96 320.32c-17.664 0-32-14.336-32-32v-256c0-0.064 0-0.064 0-0.128 0-4.16 0.832-8.256 2.432-12.096 1.536-3.776 3.84-7.168 6.656-10.048 0.128-0.128 0.128-0.256 0.256-0.384 0.064-0.064 0.192-0.064 0.256-0.192 2.88-2.816 6.336-5.184 10.112-6.72 3.968-1.6 8.128-2.432 12.288-2.432h256c17.664 0 32 14.336 32 32s-14.336 32-32 32h-178.752l265.344 265.344c12.48 12.48 12.48 32.768 0 45.248s-32.768 12.48-45.248 0l-265.344-265.344v178.752c0 17.664-14.336 32-32 32z" />
<glyph unicode="&#xe228;" d="M1021.504 428.544c-1.6 3.904-3.968 7.424-6.912 10.368l-128 128c-12.48 12.48-32.768 12.48-45.248 0s-12.48-32.768 0-45.248l73.408-73.344h-338.752v338.752l73.344-73.344c12.48-12.48 32.768-12.48 45.248 0s12.48 32.768 0 45.248l-128 128c-0.064 0.064-0.256 0.128-0.32 0.192-2.88 2.816-6.272 5.12-10.048 6.656-3.904 1.664-8.064 2.496-12.224 2.496-0.064 0-0.064 0-0.128 0-4.096 0-8.192-0.896-12.096-2.496-3.776-1.536-7.168-3.84-10.048-6.656-0.128-0.064-0.256-0.128-0.384-0.192l-128-128c-12.48-12.48-12.48-32.768 0-45.248s32.768-12.48 45.248 0l73.408 73.344v-338.752h-338.752l73.344 73.344c12.48 12.48 12.48 32.768 0 45.248-12.48 12.48-32.768 12.48-45.248 0l-128-128c-0.064-0.064-0.128-0.256-0.192-0.32-2.816-2.88-5.12-6.272-6.656-10.048-1.664-3.904-2.496-8.064-2.496-12.224 0-0.064 0-0.064 0-0.128 0-4.096 0.896-8.192 2.496-12.096 1.536-3.776 3.84-7.168 6.656-10.048 0.064-0.128 0.128-0.256 0.192-0.384l128-128c12.48-12.48 32.768-12.48 45.248 0s12.48 32.768 0 45.248l-73.344 73.408h338.752v-338.752l-73.344 73.344c-12.48 12.48-32.768 12.48-45.248 0s-12.48-32.768 0-45.248l128-128c2.944-2.944 6.464-5.312 10.368-6.912 3.904-1.536 8-2.432 12.096-2.432 0.064 0 0.064 0 0.128 0 4.16 0 8.32 0.832 12.224 2.496 3.904 1.6 7.424 3.968 10.368 6.912l128 128c12.48 12.48 12.48 32.768 0 45.248s-32.768 12.48-45.248 0l-73.344-73.408v338.752h338.752l-73.344-73.344c-12.48-12.48-12.48-32.768 0-45.248s32.768-12.48 45.248 0l128 128c2.944 2.944 5.312 6.464 6.912 10.368 1.536 3.904 2.432 8 2.432 12.096 0 0.064 0 0.064 0 0.128 0 4.16-0.832 8.32-2.496 12.224z" />
<glyph unicode="&#xe229;" d="M358.976 313.92l185.024 185.024 185.024-185.024c12.48-12.48 32.768-12.48 45.248 0s12.48 32.768 0 45.248l-207.552 207.552c-6.272 6.272-14.464 9.344-22.72 9.344s-16.448-3.072-22.72-9.344l-207.552-207.552c-12.48-12.48-12.48-32.768 0-45.248s32.768-12.48 45.248 0z" />
<glyph unicode="&#xe22a;" d="M729.024 518.72l-185.024-185.024-185.024 185.024c-12.48 12.48-32.768 12.48-45.248 0-12.48-12.48-12.48-32.768 0-45.248l207.552-207.552c6.272-6.272 14.528-9.408 22.72-9.344 8.256 0 16.448 3.072 22.72 9.344l207.552 207.552c12.48 12.48 12.48 32.768 0 45.248-12.48 12.48-32.768 12.48-45.248 0z" />
<glyph unicode="&#xe22b;" d="M393.6 393.6l207.552-207.552c12.48-12.48 32.768-12.48 45.248 0s12.48 32.768 0 45.248l-185.024 185.024 185.024 185.024c12.48 12.48 12.48 32.768 0 45.248s-32.768 12.48-45.248 0l-207.552-207.552c-6.272-6.272-9.344-14.464-9.344-22.72s3.072-16.448 9.344-22.72z" />
<glyph unicode="&#xe22c;" d="M441.6 186.048c12.48-12.48 32.768-12.48 45.248 0l207.552 207.552c6.272 6.272 9.408 14.528 9.344 22.72 0 8.256-3.072 16.448-9.344 22.72l-207.552 207.552c-12.48 12.48-32.768 12.48-45.248 0s-12.48-32.768 0-45.248l185.024-185.024-185.024-185.024c-12.48-12.48-12.48-32.768 0-45.248z" />
<glyph unicode="&#xe22d;" d="M750.464 505.536l-214.080 189.376c-6.4 6.4-14.784 9.472-23.168 9.344-8.448 0.128-16.832-2.944-23.232-9.344l-214.080-189.376c-12.544-12.544-12.544-32.96 0-45.504 12.544-12.544 32.96-12.544 45.504 0l191.744 169.664 191.744-169.664c12.544-12.544 32.96-12.544 45.504 0 12.672 12.544 12.672 32.896 0.064 45.504zM536.384 465.408c-6.4 6.4-14.784 9.472-23.168 9.344-8.448 0.128-16.832-2.944-23.232-9.344l-214.080-189.376c-12.544-12.544-12.544-32.96 0-45.504s32.96-12.544 45.504 0l191.744 169.6 191.744-169.6c12.544-12.544 32.96-12.544 45.504 0s12.544 32.96 0 45.504l-214.016 189.376z" />
<glyph unicode="&#xe22e;" d="M702.592 436.672l-191.744-169.6-191.744 169.6c-12.544 12.544-32.96 12.544-45.504 0-12.544-12.544-12.544-32.96 0-45.504l214.080-189.376c6.4-6.4 14.784-9.472 23.168-9.344 8.384-0.128 16.768 2.88 23.168 9.28l214.080 189.376c12.544 12.544 12.544 32.96 0 45.504s-32.96 12.608-45.504 0.064zM748.096 666.176c-12.544 12.544-32.96 12.544-45.504 0l-191.744-169.6-191.744 169.6c-12.608 12.544-33.024 12.544-45.568 0s-12.544-32.96 0-45.504l214.080-189.376c6.4-6.4 14.784-9.472 23.168-9.344 8.384-0.128 16.832 2.944 23.168 9.344l214.080 189.376c12.672 12.544 12.672 32.896 0.064 45.504z" />
<glyph unicode="&#xe22f;" d="M265.408 426.304l189.376-214.080c12.544-12.544 32.96-12.544 45.504 0s12.544 32.96 0 45.504l-169.6 191.744 169.6 191.744c12.544 12.544 12.544 32.96 0 45.504s-32.96 12.544-45.504 0l-189.376-214.016c-6.4-6.4-9.408-14.784-9.344-23.168-0.064-8.384 2.944-16.832 9.344-23.232zM729.856 686.784c-12.544 12.544-32.96 12.544-45.504 0l-189.44-214.080c-6.4-6.4-9.472-14.784-9.344-23.168-0.064-8.384 2.944-16.832 9.344-23.232l189.376-214.080c12.544-12.544 32.96-12.544 45.504 0s12.544 32.96 0 45.504l-169.6 191.744 169.6 191.744c12.608 12.608 12.608 33.024 0.064 45.568z" />
<glyph unicode="&#xe230;" d="M758.592 470.336l-189.376 214.080c-12.544 12.544-32.96 12.544-45.504 0s-12.544-32.96 0-45.504l169.6-191.744-169.6-191.744c-12.544-12.544-12.544-32.96 0-45.504s32.96-12.544 45.504 0l189.376 214.080c6.4 6.4 9.472 14.784 9.344 23.168 0.064 8.384-2.944 16.768-9.344 23.168zM294.144 209.856c12.544-12.544 32.96-12.544 45.504 0l189.376 214.080c6.4 6.4 9.472 14.784 9.344 23.168 0.128 8.384-2.944 16.832-9.344 23.168l-189.312 214.144c-12.544 12.544-32.96 12.544-45.504 0s-12.544-32.96 0-45.504l169.6-191.744-169.6-191.744c-12.608-12.608-12.608-33.024-0.064-45.568z" />
<glyph unicode="&#xe231;" d="M729.024 518.72l-185.024-185.024-185.024 185.024c-12.48 12.48-32.768 12.48-45.248 0-12.48-12.48-12.48-32.768 0-45.248l207.552-207.552c6.272-6.272 14.528-9.408 22.72-9.344 8.256 0 16.448 3.072 22.72 9.344l207.552 207.552c12.48 12.48 12.48 32.768 0 45.248-12.48 12.48-32.768 12.48-45.248 0zM546.304 891.776c-263.808 0-477.696-213.888-477.696-477.696-0.064-263.872 213.824-477.76 477.696-477.76 263.808 0 477.696 213.888 477.696 477.696 0 263.872-213.888 477.76-477.696 477.76zM546.304 0.32c-228.096 0-413.696 185.6-413.696 413.696s185.6 413.696 413.696 413.696c228.096 0.064 413.696-185.536 413.696-413.696 0-228.096-185.6-413.696-413.696-413.696z" />
<glyph unicode="&#xe232;" d="M646.4 646.592c-12.48 12.48-32.768 12.48-45.248 0l-207.552-207.552c-6.272-6.272-9.344-14.464-9.344-22.72s3.072-16.448 9.344-22.72l207.552-207.552c12.48-12.48 32.768-12.48 45.248 0s12.48 32.768 0 45.248l-185.024 185.024 185.024 185.024c12.48 12.48 12.48 32.768 0 45.248zM544 896.32c-265.088 0-480-214.912-480-480s214.912-480 480-480 480 214.912 480 480-214.912 480-480 480zM544 0.32c-229.376 0-416 186.624-416 416s186.624 416 416 416 416-186.624 416-416-186.624-416-416-416z" />
<glyph unicode="&#xe233;" d="M694.4 439.040l-207.552 207.552c-12.48 12.48-32.768 12.48-45.248 0s-12.48-32.768 0-45.248l185.024-185.024-185.024-185.024c-12.48-12.48-12.48-32.768 0-45.248s32.768-12.48 45.248 0l207.552 207.552c6.272 6.272 9.408 14.528 9.344 22.72 0 8.256-3.072 16.448-9.344 22.72zM546.304 891.712c-263.808 0-477.696-213.888-477.696-477.696s213.888-477.696 477.696-477.696 477.696 213.888 477.696 477.696-213.888 477.696-477.696 477.696zM546.304 0.32c-228.096 0-413.696 185.6-413.696 413.696s185.6 413.696 413.696 413.696 413.696-185.6 413.696-413.696-185.6-413.696-413.696-413.696z" />
<glyph unicode="&#xe234;" d="M568.384 662.912c-6.4 6.4-14.784 9.472-23.168 9.344-8.448 0.128-16.832-2.944-23.232-9.344l-214.080-189.376c-12.544-12.544-12.544-32.96 0-45.504s32.96-12.544 45.504 0l191.744 169.664 191.744-169.664c12.544-12.544 32.96-12.544 45.504 0s12.544 32.96 0 45.504l-214.016 189.376zM568.384 433.408c-6.4 6.4-14.784 9.472-23.168 9.344-8.448 0.128-16.832-2.944-23.232-9.344l-214.080-189.376c-12.544-12.544-12.544-32.96 0-45.504s32.96-12.544 45.504 0l191.744 169.6 191.744-169.6c12.544-12.544 32.96-12.544 45.504 0s12.544 32.96 0 45.504l-214.016 189.376zM546.304 891.712c-263.808 0-477.696-213.888-477.696-477.696s213.888-477.696 477.696-477.696 477.696 213.888 477.696 477.696-213.888 477.696-477.696 477.696zM546.304 0.32c-228.096 0-413.696 185.6-413.696 413.696s185.6 413.696 413.696 413.696 413.696-185.6 413.696-413.696-185.6-413.696-413.696-413.696z" />
<glyph unicode="&#xe235;" d="M734.592 404.672l-191.744-169.6-191.744 169.6c-12.544 12.544-32.96 12.544-45.504 0-12.544-12.544-12.544-32.96 0-45.504l214.080-189.376c6.4-6.4 14.784-9.472 23.168-9.344 8.384-0.128 16.832 2.944 23.168 9.344l214.080 189.376c12.544 12.544 12.544 32.96 0 45.504s-32.96 12.544-45.504 0zM734.592 634.176l-191.744-169.6-191.744 169.6c-12.608 12.544-33.024 12.544-45.568 0s-12.544-32.96 0-45.504l214.080-189.376c6.4-6.4 14.784-9.472 23.168-9.344 8.384-0.128 16.832 2.944 23.168 9.344l214.080 189.376c12.544 12.544 12.544 32.96 0 45.504s-32.896 12.544-45.44 0zM546.304 891.712c-263.808 0-477.696-213.888-477.696-477.696s213.888-477.696 477.696-477.696 477.696 213.888 477.696 477.696-213.888 477.696-477.696 477.696zM546.304 0.32c-228.096 0-413.696 185.6-413.696 413.696s185.6 413.696 413.696 413.696 413.696-185.6 413.696-413.696-185.6-413.696-413.696-413.696z" />
<glyph unicode="&#xe236;" d="M362.688 417.536l169.6 191.744c12.544 12.544 12.544 32.96 0 45.504s-32.96 12.544-45.504 0l-189.376-214.080c-6.4-6.4-9.472-14.784-9.344-23.168-0.064-8.384 2.944-16.832 9.344-23.232l189.376-214.080c12.544-12.544 32.96-12.544 45.504 0s12.544 32.96 0 45.504l-169.6 191.808zM761.856 654.784c-12.544 12.544-32.96 12.544-45.504 0l-189.44-214.080c-6.4-6.4-9.472-14.784-9.344-23.168-0.064-8.384 2.944-16.832 9.344-23.232l189.376-214.080c12.544-12.544 32.96-12.544 45.504 0s12.544 32.96 0 45.504l-169.6 191.744 169.6 191.744c12.608 12.608 12.608 33.024 0.064 45.568zM544 896.32c-265.088 0-480-214.912-480-480s214.912-480 480-480 480 214.912 480 480-214.912 480-480 480zM544 0.32c-229.376 0-416 186.624-416 416s186.624 416 416 416 416-186.624 416-416-186.624-416-416-416z" />
<glyph unicode="&#xe237;" d="M790.592 438.336l-189.376 214.080c-12.544 12.544-32.96 12.544-45.504 0s-12.544-32.96 0-45.504l169.6-191.744-169.6-191.744c-12.544-12.544-12.544-32.96 0-45.504s32.96-12.544 45.504 0l189.376 214.080c6.4 6.4 9.472 14.784 9.344 23.168 0.064 8.384-2.944 16.768-9.344 23.168zM570.432 415.168c0.128 8.384-2.944 16.832-9.344 23.168l-189.376 214.080c-12.544 12.544-32.96 12.544-45.504 0s-12.544-32.96 0-45.504l169.6-191.744-169.6-191.744c-12.544-12.544-12.544-32.96 0-45.504s32.96-12.544 45.504 0l189.376 214.080c6.4 6.336 9.472 14.72 9.344 23.168zM544 896.32c-265.088 0-480-214.912-480-480s214.912-480 480-480 480 214.912 480 480-214.912 480-480 480zM544 0.32c-229.376 0-416 186.624-416 416s186.624 416 416 416 416-186.624 416-416-186.624-416-416-416z" />
<glyph unicode="&#xe238;" d="M287.936 320.32h446.912c9.152 0 17.28 4.416 23.040 11.264l0.128-0.128c12.48 13.888 12.48 36.416 0 50.304l-223.936 248.128c-12.48 13.888-32.704 13.888-45.12 0-0.32-0.384-0.448-0.896-0.768-1.28l-223.488-246.848c-12.48-13.888-12.48-36.416 0-50.304 0.128-0.128 0.256-0.192 0.384-0.32 5.824-6.656 13.824-10.816 22.848-10.816z" />
<glyph unicode="&#xe239;" d="M533.824 330.752c0.32 0.384 0.448 0.896 0.768 1.28l223.424 246.848c12.48 13.888 12.48 36.416 0 50.304-0.128 0.128-0.256 0.192-0.384 0.256-5.76 6.72-13.824 10.88-22.784 10.88h-446.912c-9.152 0-17.28-4.416-23.104-11.264l-0.128 0.128c-12.48-13.888-12.48-36.416 0-50.304l223.936-248.128c12.48-13.888 32.704-13.888 45.184 0z" />
<glyph unicode="&#xe23a;" d="M578.56 695.616l-248.128-224c-13.888-12.48-13.888-32.704 0-45.12 0.384-0.32 0.896-0.448 1.28-0.768l246.848-223.424c13.888-12.48 36.416-12.48 50.304 0 0.128 0.128 0.128 0.256 0.256 0.384 6.72 5.76 10.88 13.824 10.88 22.784v446.912c0 9.152-4.416 17.28-11.264 23.040l0.128 0.128c-13.888 12.48-36.416 12.48-50.304 0.064z" />
<glyph unicode="&#xe23b;" d="M444.608 201.088l244.864 224.512c13.696 12.48 13.696 32.768 0 45.248-0.384 0.32-0.896 0.448-1.28 0.768l-243.584 224c-13.696 12.48-35.968 12.48-49.664 0-0.064-0.128-0.128-0.32-0.256-0.448-6.528-5.76-10.688-13.824-10.688-22.848v-448c0-9.152 4.352-17.28 11.072-23.104l-0.128-0.128c13.76-12.544 35.968-12.544 49.664 0z" />
<glyph unicode="&#xe23c;" d="M544 896.32c-265.088 0-480-214.912-480-480s214.912-480 480-480 480 214.912 480 480-214.912 480-480 480zM544 0.32c-229.376 0-416 186.624-416 416s186.624 416 416 416 416-186.624 416-416-186.624-416-416-416zM563.2 565.888c-10.88 13.888-28.608 13.888-39.488 0-0.32-0.384-0.384-0.896-0.704-1.28l-195.456-246.848c-10.88-13.888-10.88-36.416 0-50.304 0.064-0.128 0.256-0.128 0.32-0.256 5.056-6.72 12.096-10.88 19.968-10.88h391.040c8 0 15.104 4.416 20.16 11.264l0.128-0.128c10.88 13.888 10.88 36.416 0 50.304l-195.968 248.128z" />
<glyph unicode="&#xe23d;" d="M544 896.32c-265.088 0-480-214.912-480-480s214.912-480 480-480 480 214.912 480 480-214.912 480-480 480zM544 0.32c-229.376 0-416 186.624-416 416s186.624 416 416 416 416-186.624 416-416-186.624-416-416-416zM628.864 632.768c-13.888 10.88-36.416 10.88-50.304 0l-248.128-195.968c-13.888-10.88-13.888-28.608 0-39.488 0.384-0.32 0.896-0.384 1.28-0.704l246.848-195.52c13.888-10.88 36.416-10.88 50.304 0 0.128 0.064 0.128 0.256 0.256 0.32 6.72 5.12 10.88 12.16 10.88 20.032v391.040c0 8-4.416 15.104-11.264 20.16l0.128 0.128z" />
<glyph unicode="&#xe23e;" d="M544 896.32c-265.088 0-480-214.912-480-480s214.912-480 480-480 480 214.912 480 480-214.912 480-480 480zM544 0.32c-229.376 0-416 186.624-416 416s186.624 416 416 416 416-186.624 416-416-186.624-416-416-416zM756.288 437.248l-246.848 195.52c-13.888 10.88-36.416 10.88-50.304 0-0.128-0.128-0.192-0.256-0.32-0.32-6.656-5.056-10.816-12.096-10.816-19.968v-391.040c0-8 4.416-15.104 11.264-20.16l-0.128-0.128c13.888-10.88 36.416-10.88 50.304 0l248.128 195.968c13.888 10.88 13.888 28.608 0 39.488-0.384 0.32-0.896 0.384-1.28 0.64z" />
<glyph unicode="&#xe23f;" d="M137.344 457.664l192-192c12.48-12.48 32.768-12.48 45.248 0s12.48 32.768 0 45.248l-137.344 137.408h466.752c128 0 192-118.144 192-224 0-17.664 14.336-32 32-32s32 14.336 32 32c0 141.184-64 288-256 288h-466.752l137.344 137.344c12.48 12.48 12.48 32.768 0 45.248s-32.768 12.48-45.248 0l-192-192c-12.48-12.48-12.48-32.704 0-45.248z" />
<glyph unicode="&#xe240;" d="M288 384.32h512c17.664 0 32 14.336 32 32s-14.336 32-32 32h-512c-17.664 0-32-14.336-32-32s14.336-32 32-32z" />
<glyph unicode="&#xe241;" d="M288 384.32h224v-224c0-17.664 14.336-32 32-32s32 14.336 32 32v224h224c17.664 0 32 14.336 32 32s-14.336 32-32 32h-224v224c0 17.664-14.336 32-32 32s-32-14.336-32-32v-224h-224c-17.664 0-32-14.336-32-32s14.336-32 32-32z" />
<glyph unicode="&#xe242;" d="M321.6 193.92c12.48-12.48 32.768-12.48 45.248 0l177.152 177.152 177.152-177.152c12.48-12.48 32.768-12.48 45.248 0s12.48 32.768 0 45.248l-177.152 177.152 177.152 177.152c12.48 12.48 12.48 32.768 0 45.248s-32.768 12.48-45.248 0l-177.152-177.152-177.152 177.152c-12.48 12.48-32.768 12.48-45.248 0s-12.48-32.768 0-45.248l177.152-177.152-177.152-177.152c-12.48-12.48-12.48-32.768 0-45.248z" />
<glyph unicode="&#xe243;" d="M441.216 141.504c1.28-1.024 2.048-2.432 3.392-3.392 1.92-1.28 4.096-1.536 6.144-2.432 2.432-1.152 4.8-2.24 7.36-2.944 2.496-0.64 4.928-0.96 7.488-1.152 3.648-0.384 7.168-0.384 10.752 0.128 1.472 0.256 2.88 0.64 4.352 1.024 4.416 1.088 8.512 2.816 12.544 5.248 0.704 0.448 1.28 0.96 1.984 1.408 2.624 1.792 5.44 3.136 7.68 5.568 1.6 1.728 2.304 3.968 3.584 5.888 0.064 0.064 0.192 0.128 0.192 0.192l381.376 611.264c13.568 20.672 7.744 48.448-12.992 62.016s-48.448 7.744-62.016-12.992l-352.256-564.544-194.816 189.504c-18.176 16.832-46.464 15.744-63.296-2.432-16.768-18.176-15.68-46.528 2.496-63.296l234.368-228.032c0.448-0.448 1.088-0.576 1.664-1.024z" />
<glyph unicode="&#xe244;" d="M544 896.32c-265.088 0-480-214.912-480-480s214.912-480 480-480 480 214.912 480 480-214.912 480-480 480zM544 0.32c-229.376 0-416 186.624-416 416s186.624 416 416 416 416-186.624 416-416-186.624-416-416-416zM800 448.32h-512c-17.664 0-32-14.336-32-32s14.336-32 32-32h512c17.664 0 32 14.336 32 32s-14.336 32-32 32z" />
<glyph unicode="&#xe245;" d="M544 896.32c-265.088 0-480-214.912-480-480s214.912-480 480-480 480 214.912 480 480-214.912 480-480 480zM544 0.32c-229.376 0-416 186.624-416 416s186.624 416 416 416 416-186.624 416-416-186.624-416-416-416zM800 448.32h-224v224c0 17.664-14.336 32-32 32s-32-14.336-32-32v-224h-224c-17.664 0-32-14.336-32-32s14.336-32 32-32h224v-224c0-17.664 14.336-32 32-32s32 14.336 32 32v224h224c17.664 0 32 14.336 32 32s-14.336 32-32 32z" />
<glyph unicode="&#xe246;" d="M544 896.32c-265.088 0-480-214.912-480-480s214.912-480 480-480 480 214.912 480 480-214.912 480-480 480zM544 0.32c-229.376 0-416 186.624-416 416s186.624 416 416 416 416-186.624 416-416-186.624-416-416-416zM721.152 638.72l-175.936-175.936-157.76 175.936c-12.48 12.48-32.768 12.48-45.248 0-12.48-12.48-12.48-32.768 0-45.248l157.824-175.936-178.368-178.368c-12.48-12.48-12.48-32.768 0-45.248s32.768-12.48 45.248 0l175.936 175.936 157.824-175.936c12.48-12.48 32.768-12.48 45.248 0s12.48 32.768 0 45.248l-157.888 175.936 178.368 178.368c12.48 12.48 12.48 32.768 0 45.248s-32.768 12.48-45.248 0z" />
<glyph unicode="&#xe247;" d="M514.688 960.32c-282.752 0-512-229.248-512-512s229.248-512 512-512 512 229.248 512 512-229.248 512-512 512zM514.688 0.32c-247.040 0-448 200.96-448 448s200.96 448 448 448 448-200.96 448-448-201.024-448-448-448zM738.944 651.968c-20.672 13.568-48.448 7.744-62.016-12.992l-216.064-330.176-103.296 95.616c-18.176 16.768-46.528 15.68-63.36-2.496s-15.68-46.464 2.496-63.296l142.784-132.096c0.512-0.448 1.152-0.576 1.664-1.024 1.28-1.024 2.048-2.432 3.392-3.392 1.92-1.28 4.096-1.536 6.144-2.432 2.432-1.152 4.8-2.24 7.36-2.944 2.496-0.64 4.928-0.96 7.488-1.152 3.648-0.384 7.168-0.384 10.752 0.128 1.472 0.256 2.88 0.64 4.352 1.024 4.416 1.088 8.512 2.816 12.544 5.248 0.704 0.448 1.28 0.96 1.984 1.408 2.624 1.792 5.44 3.136 7.68 5.568 1.6 1.728 2.304 3.968 3.584 5.888 0.064 0.064 0.192 0.128 0.192 0.192l245.248 374.848c13.568 20.736 7.744 48.512-12.928 62.080z" />
<glyph unicode="&#xe248;" d="M608 960.32c-229.76 0-416-186.24-416-416 0-98.88 34.624-189.504 92.224-260.928l-271.168-271.168c-17.344-17.344-17.344-45.504 0-62.848s45.504-17.344 62.848 0l271.168 271.168c71.424-57.6 162.048-92.224 260.928-92.224 229.76 0 416 186.24 416 416s-186.24 416-416 416zM608 192.32c-194.112 0-352 157.888-352 352s157.888 352 352 352 352-157.888 352-352-157.888-352-352-352zM800 576.32h-384c-17.664 0-32-14.336-32-32s14.336-32 32-32h384c17.664 0 32 14.336 32 32s-14.336 32-32 32z" />
<glyph unicode="&#xe249;" d="M608 960.32c-229.76 0-416-186.24-416-416 0-98.88 34.688-189.632 92.288-261.056l-274.944-274.944c-17.28-17.28-17.28-45.376 0-62.656s45.376-17.28 62.656 0l274.944 274.944c71.424-57.6 162.176-92.288 261.056-92.288 229.76 0 416 186.24 416 416s-186.24 416-416 416zM608 192.32c-194.112 0-352 157.888-352 352s157.888 352 352 352 352-157.888 352-352-157.888-352-352-352z" />
<glyph unicode="&#xe24a;" d="M832 832.32h-640c-35.328 0-64-28.672-64-64v-640c0-35.328 28.672-64 64-64h640c35.328 0 64 28.672 64 64v640c0 35.328-28.672 64-64 64zM832 128.32h-640v640h640v-640z" />
<glyph unicode="&#xe24b;" d="M832 832.32h-640c-35.328 0-64-28.672-64-64v-640c0-35.328 28.672-64 64-64h640c35.328 0 64 28.672 64 64v640c0 35.328-28.672 64-64 64zM832 128.32h-640v640h640v-640zM384 256.32h256c35.328 0 64 28.672 64 64v256c0 35.328-28.672 64-64 64h-256c-35.328 0-64-28.672-64-64v-256c0-35.328 28.672-64 64-64z" />
<glyph unicode="&#xe24c;" d="M256 640.32v-448c0-35.328 28.672-64 64-64h448c35.328 0 64 28.672 64 64v448c0 35.328-28.672 64-64 64h-448c-35.328 0-64-28.672-64-64zM768 192.32h-448v448h448v-448zM416 384.32h256c17.664 0 32 14.336 32 32s-14.336 32-32 32h-256c-17.664 0-32-14.336-32-32s14.336-32 32-32z" />
<glyph unicode="&#xe24d;" d="M256 640.32v-448c0-35.328 28.672-64 64-64h448c35.328 0 64 28.672 64 64v448c0 35.328-28.672 64-64 64h-448c-35.328 0-64-28.672-64-64zM768 192.32h-448v448h448v-448zM416 384.32h96v-96c0-17.664 14.336-32 32-32s32 14.336 32 32v96h96c17.664 0 32 14.336 32 32s-14.336 32-32 32h-96v96c0 17.664-14.336 32-32 32s-32-14.336-32-32v-96h-96c-17.664 0-32-14.336-32-32s14.336-32 32-32z" />
<glyph unicode="&#xe24e;" d="M832 128.32h-640v640h472.064l39.936 64h-512c-35.328 0-64-28.672-64-64v-640c0-35.328 28.672-64 64-64h640c35.328 0 64 28.672 64 64v422.592l-64-102.592v-320zM939.712 889.024c-7.552 4.928-16.064 7.296-24.448 7.296-14.592 0-28.928-7.168-37.504-20.288l-347.904-501.888-134.592 153.6c-18.24 16.832-46.528 15.744-63.36-2.432s-15.68-46.528 2.496-63.296l161.792-184.64c1.024-1.664 2.624-2.944 3.904-4.48l4.096-4.672c0.512-0.448 1.152-0.576 1.664-1.024 1.28-1.024 2.048-2.432 3.392-3.392 2.752-1.792 5.76-2.944 8.768-4.032 0.704-0.256 1.28-0.704 1.984-0.896 4.48-1.472 9.152-2.368 13.76-2.368 0.192 0 0.384 0.128 0.576 0.128 12.16-0.064 24.256 4.416 33.152 14.016 1.664 1.792 2.304 3.968 3.648 5.952 0.064 0.064 0.128 0.128 0.192 0.192l381.376 550.208c13.504 20.672 7.744 48.448-12.992 62.016z" />
<glyph unicode="&#xe24f;" d="M512 832.32c-212.096 0-384-171.904-384-384s171.904-384 384-384 384 171.904 384 384-171.904 384-384 384zM512 128.32c-176.448 0-320 143.552-320 320s143.552 320 320 320 320-143.552 320-320-143.552-320-320-320z" />
<glyph unicode="&#xe250;" d="M512 832.32c-212.096 0-384-171.904-384-384s171.904-384 384-384 384 171.904 384 384-171.904 384-384 384zM512 128.32c-176.448 0-320 143.552-320 320s143.552 320 320 320 320-143.552 320-320-143.552-320-320-320zM320 448.32c0-106.039 85.961-192 192-192s192 85.961 192 192c0 106.039-85.961 192-192 192-106.039 0-192-85.961-192-192z" />
<glyph unicode="&#xe251;" d="M512 960.32c-282.752 0-512-229.248-512-512s229.248-512 512-512 512 229.248 512 512-229.248 512-512 512zM512 0.32c-247.040 0-448 200.96-448 448s200.96 448 448 448 448-200.96 448-448-200.96-448-448-448zM640 640.32h-256c-35.328 0-64-28.672-64-64v-256c0-35.328 28.672-64 64-64h256c35.328 0 64 28.672 64 64v256c0 35.328-28.672 64-64 64z" />
<glyph unicode="&#xe252;" d="M640 256.32c35.328 0 64 28.672 64 64v256c0 35.328-28.672 64-64 64h-256c-35.328 0-64-28.672-64-64v-256c0-35.328 28.672-64 64-64h256z" />
<glyph unicode="&#xe253;" d="M512-63.68c282.752 0 512 229.248 512 512s-229.248 512-512 512-512-229.248-512-512 229.248-512 512-512zM512 896.32c247.040 0 448-200.96 448-448s-200.96-448-448-448-448 200.96-448 448 200.96 448 448 448zM384 256.32c35.328 0 64 28.672 64 64v256c0 35.328-28.672 64-64 64s-64-28.672-64-64v-256c0-35.328 28.672-64 64-64zM640 256.32c35.328 0 64 28.672 64 64v256c0 35.328-28.672 64-64 64s-64-28.672-64-64v-256c0-35.328 28.672-64 64-64z" />
<glyph unicode="&#xe254;" d="M384 640.32c-35.328 0-64-28.672-64-64v-256c0-35.328 28.672-64 64-64s64 28.672 64 64v256c0 35.328-28.672 64-64 64zM576 320.32c0-35.328 28.672-64 64-64s64 28.672 64 64v256c0 35.328-28.672 64-64 64s-64-28.672-64-64v-256z" />
<glyph unicode="&#xe255;" d="M960 896.32h-832c-35.328 0-64-28.672-64-64v-832c0-35.328 28.672-64 64-64h832c35.328 0 64 28.672 64 64v832c0 35.328-28.672 64-64 64zM960 0.32h-832v832h832v-832zM288 384.32h512c17.664 0 32 14.336 32 32s-14.336 32-32 32h-512c-17.664 0-32-14.336-32-32s14.336-32 32-32zM288 576.32h512c17.664 0 32 14.336 32 32s-14.336 32-32 32h-512c-17.664 0-32-14.336-32-32s14.336-32 32-32zM288 192.32h512c17.664 0 32 14.336 32 32s-14.336 32-32 32h-512c-17.664 0-32-14.336-32-32s14.336-32 32-32z" />
<glyph unicode="&#xe256;" d="M544 896.32c-265.088 0-480-214.912-480-480s214.912-480 480-480 480 214.912 480 480-214.912 480-480 480zM544 0.32c-229.376 0-416 186.624-416 416s186.624 416 416 416 416-186.624 416-416-186.624-416-416-416zM800 448.32h-512c-17.664 0-32-14.336-32-32s14.336-32 32-32h512c17.664 0 32 14.336 32 32s-14.336 32-32 32zM800 640.32h-512c-17.664 0-32-14.336-32-32s14.336-32 32-32h512c17.664 0 32 14.336 32 32s-14.336 32-32 32zM800 256.32h-512c-17.664 0-32-14.336-32-32s14.336-32 32-32h512c17.664 0 32 14.336 32 32s-14.336 32-32 32z" />
<glyph unicode="&#xe257;" d="M352 448.32h512c17.664 0 32 14.336 32 32s-14.336 32-32 32h-512c-17.664 0-32-14.336-32-32s14.336-32 32-32zM352 704.32h512c17.664 0 32 14.336 32 32s-14.336 32-32 32h-512c-17.664 0-32-14.336-32-32s14.336-32 32-32zM352 192.32h512c17.664 0 32 14.336 32 32s-14.336 32-32 32h-512c-17.664 0-32-14.336-32-32s14.336-32 32-32zM128 736.32c0-17.673 14.327-32 32-32s32 14.327 32 32c0 17.673-14.327 32-32 32-17.673 0-32-14.327-32-32zM128 480.32c0-17.673 14.327-32 32-32s32 14.327 32 32c0 17.673-14.327 32-32 32-17.673 0-32-14.327-32-32zM128 224.32c0-17.673 14.327-32 32-32s32 14.327 32 32c0 17.673-14.327 32-32 32-17.673 0-32-14.327-32-32z" />
<glyph unicode="&#xe258;" d="M864 512.32h-512c-17.664 0-32-14.336-32-32s14.336-32 32-32h512c17.664 0 32 14.336 32 32s-14.336 32-32 32zM864 768.32h-512c-17.664 0-32-14.336-32-32s14.336-32 32-32h512c17.664 0 32 14.336 32 32s-14.336 32-32 32zM864 256.32h-512c-17.664 0-32-14.336-32-32s14.336-32 32-32h512c17.664 0 32 14.336 32 32s-14.336 32-32 32zM222.72 657.408v157.824h-18.24l-34.496-18.432 4.16-16.256 27.456 14.784h0.448v-137.92zM171.968 430.784l-16.704-16.256v-13.12h100.736v17.728h-70.912v0.448l12.608 11.648c33.28 32.064 54.4 55.616 54.4 84.736 0 22.592-14.336 45.888-48.32 45.888-18.24 0-33.728-6.784-44.672-16.064l6.784-15.040c7.296 6.080 19.2 13.376 33.536 13.376 23.552 0 31.296-14.784 31.296-30.848-0.192-23.744-18.432-44.16-58.752-82.496zM198.208 162.624c-14.784 0-28.864 6.080-34.944 9.92l-5.824-16.512c7.744-5.12 23.296-10.688 41.024-10.688 37.888 0 57.536 22.080 57.536 47.36 0 22.080-15.808 36.672-35.2 40.576v0.448c19.456 7.040 29.12 20.864 29.12 37.184 0 19.2-14.080 37.632-45.184 37.632-17.024 0-33.024-6.080-41.28-12.16l5.568-15.552c6.784 4.864 18.944 10.432 31.552 10.432 19.648 0 27.712-11.2 27.712-23.808 0-18.688-19.648-26.688-35.2-26.688h-11.904v-16h11.904c20.672 0 40.576-9.472 40.768-31.552 0.32-13.12-8.192-30.592-35.648-30.592z" />
<glyph unicode="&#xe259;" d="M864 768.32h-96c0 35.328-28.672 64-64 64h-64c-35.328 0-64-28.672-64-64h-416c-17.664 0-32-14.336-32-32s14.336-32 32-32h416c0-35.328 28.672-64 64-64h64c35.328 0 64 28.672 64 64h96c17.664 0 32 14.336 32 32s-14.336 32-32 32zM704 704.32h-64v64h64v-64zM864 512.32h-416c0 35.328-28.672 64-64 64h-64c-35.328 0-64-28.672-64-64h-96c-17.664 0-32-14.336-32-32s14.336-32 32-32h96c0-35.328 28.672-64 64-64h64c35.328 0 64 28.672 64 64h416c17.664 0 32 14.336 32 32s-14.336 32-32 32zM384 448.32h-64v64h64v-64zM864 256.32h-224c0 35.328-28.672 64-64 64h-64c-35.328 0-64-28.672-64-64h-288c-17.664 0-32-14.336-32-32s14.336-32 32-32h288c0-35.328 28.672-64 64-64h64c35.328 0 64 28.672 64 64h224c17.664 0 32 14.336 32 32s-14.336 32-32 32zM576 192.32h-64v64h64v-64z" />
<glyph unicode="&#xe25a;" d="M320 704.32v96c0 17.664-14.336 32-32 32s-32-14.336-32-32v-96c-35.328 0-64-28.672-64-64v-64c0-35.328 28.672-64 64-64v-416c0-17.664 14.336-32 32-32s32 14.336 32 32v416c35.328 0 64 28.672 64 64v64c0 35.328-28.672 64-64 64zM256 640.32h64v-64h-64v64zM576 384.32v416c0 17.664-14.336 32-32 32s-32-14.336-32-32v-416c-35.328 0-64-28.672-64-64v-64c0-35.328 28.672-64 64-64v-96c0-17.664 14.336-32 32-32s32 14.336 32 32v96c35.328 0 64 28.672 64 64v64c0 35.328-28.672 64-64 64zM512 320.32h64v-64h-64v64zM832 576.32v224c0 17.664-14.336 32-32 32s-32-14.336-32-32v-224c-35.328 0-64-28.672-64-64v-64c0-35.328 28.672-64 64-64v-288c0-17.664 14.336-32 32-32s32 14.336 32 32v288c35.328 0 64 28.672 64 64v64c0 35.328-28.672 64-64 64zM768 512.32h64v-64h-64v64z" />
<glyph unicode="&#xe25b;" d="M128-63.68h768c35.328 0 64 28.672 64 64v896c0 35.328-28.672 64-64 64h-768c-35.328 0-64-28.672-64-64v-896c0-35.328 28.672-64 64-64zM128 896.32h768v-896h-768v896zM736 768.32h-256c-17.664 0-32-14.336-32-32s14.336-32 32-32h256c17.664 0 32 14.336 32 32s-14.336 32-32 32zM736 576.32h-448c-17.664 0-32-14.336-32-32s14.336-32 32-32h448c17.664 0 32 14.336 32 32s-14.336 32-32 32zM736 384.32h-448c-17.664 0-32-14.336-32-32s14.336-32 32-32h448c17.664 0 32 14.336 32 32s-14.336 32-32 32zM736 192.32h-448c-17.664 0-32-14.336-32-32s14.336-32 32-32h448c17.664 0 32 14.336 32 32s-14.336 32-32 32z" />
<glyph unicode="&#xe25c;" d="M128 64.32h64v-64c0-35.328 28.672-64 64-64h640c35.328 0 64 28.672 64 64v768c0 35.328-28.672 64-64 64h-64v64c0 35.328-28.672 64-64 64h-640c-35.328 0-64-28.672-64-64v-768c0-35.328 28.672-64 64-64zM768 128.32h-640v768h640v-768zM896 768.32v-768h-640v64h512c35.328 0 64 28.672 64 64v640h64zM320 736.32c0-17.664 14.336-32 32-32h320c17.664 0 32 14.336 32 32s-14.336 32-32 32h-320c-17.664 0-32-14.336-32-32zM224 512.32h448c17.664 0 32 14.336 32 32s-14.336 32-32 32h-448c-17.664 0-32-14.336-32-32s14.336-32 32-32zM224 384.32h448c17.664 0 32 14.336 32 32s-14.336 32-32 32h-448c-17.664 0-32-14.336-32-32s14.336-32 32-32zM224 256.32h448c17.664 0 32 14.336 32 32s-14.336 32-32 32h-448c-17.664 0-32-14.336-32-32s14.336-32 32-32z" />
<glyph unicode="&#xe25d;" d="M963.904-3.584l-67.264 203.008-543.040 543.040-135.744-135.744 543.040-543.040zM127.36 697.216l135.744 135.744-67.2 67.2c-37.504 37.504-98.24 37.504-135.744 0-37.504-37.44-37.504-98.304 0-135.744l67.2-67.2z" />
<glyph unicode="&#xe25e;" d="M659.84 185.344l172.16-57.024-57.024 172.16-328.96 328.96-115.136-115.136zM263.104 582.080l115.136 115.136-84.736 84.736c-31.808 31.808-83.328 31.808-115.136 0s-31.808-83.328 0-115.136l84.736-84.736zM960 960.32h-896c-35.328 0-64-28.672-64-64v-896c0-35.328 28.672-64 64-64h896c35.328 0 64 28.672 64 64v896c0 35.328-28.672 64-64 64zM960 0.32h-896v896h896v-896z" />
<glyph unicode="&#xe25f;" d="M677.504 282.816l-57.024 172.16-328.96 328.96-115.136-115.136 328.96-328.96zM23.872 936.448c-31.808-31.808-31.808-83.328 0-115.136l84.736-84.736 115.136 115.136-84.736 84.736c-31.808 31.808-83.328 31.808-115.136 0zM960 768.32h-453.696l64-64h389.696v-704h-704v389.696l-64 64v-453.696c0-35.328 28.672-64 64-64h704c35.328 0 64 28.672 64 64v704c0 35.328-28.672 64-64 64z" />
<glyph unicode="&#xe260;" d="M960 768.32h-289.024c-35.328 0-75.968-17.984-94.976-64 0 0-8.32-58.688-64-64h-448c-35.328 0-64-27.648-64-62.976v-577.024c0-35.328 28.672-64 64-64h896c35.328 0 64 28.672 64 64v512 65.024 126.976c0 35.328-28.672 64-64 64zM960 577.344v-65.024-512h-896v576h448c2.048 0 4.032 0.128 6.080 0.32 60.032 5.696 97.152 47.68 114.304 90.88 16.64 41.792 45.632 36.8 45.632 36.8h281.984v-126.976z" />
<glyph unicode="&#xe261;" d="M960 768.32h-225.024c-35.328 0-75.968-17.984-94.976-64 0 0-8.32-58.688-64-64h-448c-35.328 0-64-27.648-64-62.976v-577.024c0-35.328 28.672-64 64-64h832c35.328 0 64 28.672 64 64v512 65.024 126.976c0 35.328-28.672 64-64 64zM960 577.344v-65.024-512h-832v576h448c2.048 0 4.032 0.128 6.080 0.32 60.032 5.696 97.152 47.744 114.304 90.944 16.64 41.728 45.632 36.736 45.632 36.736h217.984v-126.976zM704 320.32h-128v128c0 17.664-14.336 32-32 32s-32-14.336-32-32v-128h-128c-17.664 0-32-14.336-32-32s14.336-32 32-32h128v-128c0-17.664 14.336-32 32-32s32 14.336 32 32v128h128c17.664 0 32 14.336 32 32s-14.336 32-32 32z" />
<glyph unicode="&#xe262;" d="M512 960.32c-282.752 0-512-229.248-512-512s229.248-512 512-512 512 229.248 512 512-229.248 512-512 512zM512 0.32c-247.040 0-448 200.96-448 448s200.96 448 448 448 448-200.96 448-448-200.96-448-448-448zM512 576.32c-35.328 0-64-28.672-64-64v-320c0-35.328 28.672-64 64-64s64 28.672 64 64v320c0 35.328-28.672 64-64 64zM448 703.296c0-35.346 28.654-64 64-64s64 28.654 64 64c0 35.346-28.654 64-64 64-35.346 0-64-28.654-64-64z" />
<glyph unicode="&#xe263;" d="M742.848 941.568c-12.032 12.032-28.288 18.752-45.312 18.752h-371.072c-16.96 0-33.28-6.72-45.248-18.752l-262.4-262.464c-12.096-11.968-18.816-28.224-18.816-45.248v-371.136c0-16.96 6.72-33.28 18.752-45.248l262.4-262.464c12.032-11.968 28.288-18.688 45.312-18.688h371.136c16.96 0 33.28 6.72 45.248 18.752l262.4 262.464c12.032 11.968 18.752 28.224 18.752 45.248v371.072c0 16.96-6.72 33.28-18.752 45.248l-262.4 262.464zM960 262.784l-262.464-262.464h-371.072l-262.464 262.464v371.072l262.464 262.464h371.136l262.4-262.464v-371.072zM512 768.32c-35.328 0-64-28.672-64-64v-320c0-35.328 28.672-64 64-64s64 28.672 64 64v320c0 35.328-28.672 64-64 64zM448 192.32c0-35.346 28.654-64 64-64s64 28.654 64 64c0 35.346-28.654 64-64 64-35.346 0-64-28.654-64-64z" />
<glyph unicode="&#xe264;" d="M512 960.32c-282.752 0-512-229.248-512-512s229.248-512 512-512 512 229.248 512 512-229.248 512-512 512zM512 0.32c-247.040 0-448 200.96-448 448s200.96 448 448 448 448-200.96 448-448-200.96-448-448-448zM512 768.32c-35.328 0-64-28.672-64-64v-320c0-35.328 28.672-64 64-64s64 28.672 64 64v320c0 35.328-28.672 64-64 64zM448 193.344c0-35.346 28.654-64 64-64s64 28.654 64 64c0 35.346-28.654 64-64 64-35.346 0-64-28.654-64-64z" />
<glyph unicode="&#xe265;" d="M1012.48 30.464l-444.032 832c-11.072 20.8-32.768 33.856-56.384 33.856h-0.064c-23.616 0-45.248-12.992-56.384-33.792l-446.016-832c-10.624-19.84-10.048-43.776 1.472-63.104 11.584-19.264 32.448-31.104 54.912-31.104h889.984c22.464 0 43.328 11.776 54.912 31.104 11.584 19.264 12.16 43.2 1.6 63.040zM65.984 0.32l446.016 832 444.032-832h-890.048zM448 511.296v-192c0-35.328 28.672-64 64-64s64 28.672 64 64v192c0 35.328-28.672 64-64 64s-64-28.608-64-64zM448 128.32c0-35.346 28.654-64 64-64s64 28.654 64 64c0 35.346-28.654 64-64 64-35.346 0-64-28.654-64-64z" />
<glyph unicode="&#xe266;" d="M512 960.32c-282.752 0-512-229.248-512-512s229.248-512 512-512 512 229.248 512 512-229.248 512-512 512zM512 0.32c-247.040 0-448 200.96-448 448s200.96 448 448 448 448-200.96 448-448-200.96-448-448-448zM440.768 127.424c0 0 0 0 0 0 0-36.407 29.513-65.92 65.92-65.92 36.407 0 65.92 29.513 65.92 65.92 0 0 0 0 0 0 0 36.407-29.513 65.92-65.92 65.92-36.407 0-65.92-29.513-65.92-65.92zM506.688 832.32c-124.096 0-256-90.176-256-257.344 0-35.328 28.608-64 64-64s64 28.672 64 64c0 88.896 66.368 129.344 128 129.344 47.808 0 128-14.016 128-108.032 0-33.344-8.768-72.256-73.536-107.968-44.032-24.128-118.464-86.784-118.464-168 0-35.328 28.608-64 64-64s64 28.672 64 64c0 11.904 25.344 41.152 52.16 55.936 92.736 51.072 139.84 125.12 139.84 220.032 0 163.072-128.576 236.032-256 236.032z" />
<glyph unicode="&#xe267;" d="M440.768 127.424c0 0 0 0 0 0 0-36.407 29.513-65.92 65.92-65.92 36.407 0 65.92 29.513 65.92 65.92 0 0 0 0 0 0 0 36.407-29.513 65.92-65.92 65.92-36.407 0-65.92-29.513-65.92-65.92zM622.848 376.256c92.736 51.072 139.84 125.12 139.84 220.032 0 163.008-128.576 236.032-256 236.032-124.096 0-256-90.176-256-257.344 0-35.328 28.608-64 64-64s64 28.672 64 64c0 88.896 66.368 129.344 128 129.344 47.808 0 128-14.016 128-108.032 0-33.344-8.768-72.256-73.536-107.968-44.032-24.128-118.464-86.784-118.464-168 0-35.328 28.608-64 64-64s64 28.672 64 64c0 11.904 25.28 41.152 52.16 55.936z" />
<glyph unicode="&#xe268;" d="M60.736 20.096c5.248-11.264 16.576-18.432 28.992-18.432 91.84 0 169.536 22.336 257.792 74.368 42.816-6.784 127.36-15.168 164.48-15.168 280.192 0 508.096 187.072 508.096 417.088s-227.904 417.024-508.096 417.024-508.096-187.008-508.096-417.024c0-108.416 52.288-213.184 144.32-290.816-20.864-47.36-48.704-92.032-83.008-132.928-7.936-9.6-9.728-22.912-4.48-34.112zM67.904 477.952c0 194.688 199.232 353.088 444.096 353.088s444.096-158.4 444.096-353.088-199.232-353.088-444.096-353.088c-36.736 0-132.352 9.856-164.672 16.128-7.808 1.408-15.936-0.064-22.72-4.096-59.648-36.48-111.68-57.344-167.36-66.176 24 36.352 43.968 74.752 59.52 114.752 5.184 13.376 0.96 28.48-10.496 37.12-89.28 67.584-138.368 158.336-138.368 255.36z" />
<glyph unicode="&#xe269;" d="M893.12 583.040c5.632-25.344 8.896-51.392 8.896-78.144 0-206.592-175.36-378.816-406.272-415.808 48.832-19.712 103.552-31.232 161.856-31.232 54.976 0 106.88 10.112 153.728 27.712 59.328-20.224 124.096-25.472 177.664-25.472-27.84 33.408-47.168 66.176-60.992 94.976 59.392 52.992 96 123.2 96 200.512 0 91.392-51.008 172.864-130.88 227.456zM47.104 146.944c5.568-10.56 16.512-17.152 28.352-17.152 0.512 0 1.088 0 1.536 0.064 33.856 1.6 101.184 24.064 172.48 69.312 38.144-6.72 123.584-19.392 153.408-19.392 225.088 0 401.344 156.736 401.344 356.864 0 196.8-179.968 356.864-401.344 356.864s-401.216-160-401.216-356.8c0-91.584 40.32-180.096 111.296-246.336-15.936-38.784-37.056-75.456-62.848-109.056-7.616-9.856-8.768-23.296-3.008-34.368zM65.664 536.704c0 161.472 151.296 292.864 337.344 292.864s337.344-131.392 337.344-292.864c0-166.912-145.024-292.864-337.344-292.864-25.28 0-125.888 14.656-153.536 20.48-8.448 1.664-17.216 0.128-24.256-4.672-27.456-18.176-53.312-31.936-75.84-42.048 12.224 22.976 22.784 46.784 31.616 71.36 4.544 12.736 0.64 26.944-9.728 35.52-68.096 56-105.6 131.392-105.6 212.224z" />
<glyph unicode="&#xe26a;" d="M64 184.192h146.624c11.584-11.52 278.464-236.16 278.464-236.16 13.888-8.448 25.984-11.712 36.544-11.712 1.6 0 3.2 0.064 4.736 0.192 23.68 2.24 40.576 22.080 45.632 43.008v937.536c-4.992 20.992-21.952 40.832-45.632 43.072-1.536 0.128-3.072 0.192-4.736 0.192-10.56 0-22.656-3.264-36.544-11.648 0 0-266.88-232.832-278.464-244.352h-146.624c-35.328 0-64-28.672-64-64v-8.128-375.872-8.128c0-35.392 28.672-64 64-64zM64 256.32v375.872 8.128h146.624c16.384 0 32.768 6.848 44.608 18.112 11.648 11.072 156.288 137.6 256.768 225.28v-871.36c-99.84 84.096-244.48 206.272-256.256 217.152-11.968 11.968-28.224 18.624-45.184 18.624h-146.56v8.192zM1012.544 614.016c-15.232 15.232-40 15.232-55.232 0l-110.464-110.464-110.464 110.464c-15.232 15.232-40 15.232-55.232 0s-15.232-40 0-55.232l110.464-110.464-110.464-110.464c-15.232-15.232-15.232-40 0-55.232s40-15.232 55.232 0l110.464 110.464 110.464-110.464c15.232-15.232 40-15.232 55.232 0s15.232 40 0 55.232l-110.464 110.464 110.464 110.464c15.296 15.232 15.296 40 0 55.232z" />
<glyph unicode="&#xe26b;" d="M653.632 960.32c-10.56 0-22.656-3.264-36.544-11.648 0 0-266.88-232.832-278.464-244.352h-146.624c-35.328 0-64-28.672-64-64v-8.128-375.872-8.128c0-35.328 28.672-64 64-64h146.624c11.584-11.52 278.464-236.16 278.464-236.16 13.888-8.448 25.984-11.712 36.544-11.712 1.6 0 3.2 0.064 4.736 0.192 23.68 2.24 40.576 22.080 45.632 43.008v937.536c-4.992 20.992-21.952 40.832-45.632 43.008-1.536 0.192-3.072 0.256-4.736 0.256zM640 12.352c-99.84 84.096-244.48 206.272-256.256 217.152-11.968 11.968-28.224 18.624-45.184 18.624h-146.56v8.192 375.872 8.128h146.624c16.384 0 32.768 6.848 44.608 18.112 11.648 11.072 156.288 137.6 256.768 225.28v-871.36zM802.624 336.512c-15.808-8-22.144-27.2-14.208-43.008 5.632-11.136 16.896-17.6 28.544-17.6 4.864 0 9.728 1.088 14.4 3.392 64.704 32.64 104.896 97.344 104.896 169.024s-40.192 136.384-104.896 169.024c-15.808 8-35.008 1.6-42.944-14.208-7.936-15.808-1.6-35.008 14.208-43.008 42.944-21.632 69.632-64.448 69.632-111.808s-26.688-90.176-69.632-111.808z" />
<glyph unicode="&#xe26c;" d="M64 184.192h146.624c11.584-11.52 278.464-236.16 278.464-236.16 13.888-8.448 25.984-11.712 36.544-11.712 1.6 0 3.2 0.064 4.736 0.192 23.68 2.24 40.576 22.080 45.632 43.008v937.536c-4.992 20.992-21.952 40.832-45.632 43.072-1.536 0.128-3.072 0.192-4.736 0.192-10.56 0-22.656-3.264-36.544-11.648 0 0-266.88-232.832-278.464-244.352h-146.624c-35.328 0-64-28.672-64-64v-8.128-375.872-8.128c0-35.392 28.672-64 64-64zM64 256.32v375.872 8.128h146.624c16.384 0 32.768 6.848 44.608 18.112 11.648 11.072 156.288 137.6 256.768 225.28v-871.36c-99.84 84.096-244.48 206.272-256.256 217.152-11.968 11.968-28.224 18.624-45.184 18.624h-146.56v8.192zM674.624 336.512c-15.808-8-22.144-27.2-14.208-43.008 5.632-11.136 16.896-17.6 28.544-17.6 4.864 0 9.728 1.088 14.4 3.392 64.704 32.64 104.896 97.344 104.896 169.024s-40.192 136.384-104.896 169.024c-15.808 8-35.008 1.6-42.944-14.208-7.936-15.808-1.6-35.008 14.208-43.008 42.944-21.632 69.632-64.448 69.632-111.808s-26.688-90.176-69.632-111.808zM630.592 81.024c3.008-15.296 16.384-25.856 31.36-25.856 2.048 0 4.096 0.192 6.208 0.576 187.648 36.608 323.84 201.728 323.84 392.576s-136.192 355.968-323.904 392.576c-17.024 3.456-34.176-7.936-37.504-25.28-3.392-17.344 7.936-34.176 25.28-37.568 157.696-30.72 272.128-169.408 272.128-329.728s-114.432-299.008-272.128-329.728c-17.344-3.392-28.672-20.224-25.28-37.568z" />
<glyph unicode="&#xe26d;" d="M512 960.32c-282.752 0-512-229.248-512-512s229.248-512 512-512 512 229.248 512 512-229.248 512-512 512zM512 0.32c-247.040 0-448 200.96-448 448s200.96 448 448 448 448-200.96 448-448-200.96-448-448-448zM410.048 615.488c-5.568 4.736-10.56 8.064-14.912 10.56-0.192 0.128-0.32 0.32-0.512 0.384-0.32 0.192-0.64 0.256-0.96 0.384-6.336 3.52-10.88 5.184-10.88 5.184l0.32-0.768c-10.304 4.224-21.12 7.232-32.896 7.232-52.096 0-94.272-43.84-94.272-97.92 0-54.080 42.24-97.92 94.272-97.92 16.704 0 32.128 4.864 45.76 12.8-4.672-52.352-31.040-128.704-127.68-206.528-13.504-10.944-16-31.168-5.504-45.184 6.144-8.192 15.296-12.48 24.512-12.48 6.656 0 13.312 2.176 19.008 6.784 118.592 95.68 148.224 193.984 152.192 259.648 6.784 83.968-18.688 128.128-41.984 151.168-2.112 2.24-4.096 4.672-6.464 6.656zM720.32 615.488c-5.568 4.736-10.56 8.064-14.912 10.56-0.192 0.128-0.32 0.256-0.512 0.384-0.32 0.192-0.64 0.256-0.96 0.384-6.336 3.456-10.88 5.184-10.88 5.184l0.32-0.768c-10.304 4.224-21.184 7.232-32.896 7.232-52.096 0-94.272-43.84-94.272-97.92 0-54.080 42.176-97.92 94.272-97.92 16.704 0 32.128 4.864 45.76 12.8-4.672-52.352-31.040-128.704-127.68-206.528-13.568-10.944-16-31.168-5.504-45.184 6.144-8.192 15.296-12.48 24.512-12.48 6.656 0 13.312 2.176 19.008 6.784 118.592 95.68 148.224 193.984 152.192 259.648 6.784 83.968-18.752 128.128-41.984 151.168-2.112 2.24-4.096 4.672-6.464 6.656z" />
<glyph unicode="&#xe26e;" d="M546.112 892.032c-122.304 0-244.608-46.656-337.92-139.968-186.624-186.624-186.624-489.216 0-675.776 93.376-93.312 215.616-139.968 337.92-139.968s244.608 46.656 337.92 139.968c186.624 186.624 186.624 489.216 0 675.776-93.312 93.312-215.616 139.968-337.92 139.968zM838.784 121.536c-78.144-78.144-182.080-121.216-292.672-121.216-110.528 0-214.464 43.072-292.672 121.216-78.144 78.144-121.216 182.080-121.216 292.672s43.072 214.464 121.216 292.672c78.144 78.144 182.080 121.216 292.672 121.216 110.528 0 214.464-43.072 292.672-121.216s121.216-182.144 121.216-292.672-43.072-214.528-121.216-292.672zM736 448.32h-160v224.448c0 17.664-14.336 32-32 32s-32-14.336-32-32v-256.256c0 0 0-0.064 0-0.064v-0.128c0-17.664 14.336-32 32-32h192c17.664 0 32 14.336 32 32s-14.336 32-32 32z" />
<glyph unicode="&#xe26f;" d="M512 960.32c-176.704 0-320-145.472-320-324.928v-59.072h-64c-35.328 0-64-28.672-64-64v-512c0-35.328 28.672-64 64-64h768c35.328 0 64 28.672 64 64v512c0 35.328-28.672 64-64 64h-64v59.072c0 179.456-143.296 324.928-320 324.928zM256 635.392c0 143.872 114.816 260.928 256 260.928s256-117.056 256-260.928v-59.072h-512v59.072zM896 0.32h-768v512h768v-512zM640 256.32c0 70.72-57.28 128-128 128s-128-57.28-128-128 57.28-128 128-128 128 57.28 128 128zM512 192.32c-35.264 0-64 28.736-64 64s28.736 64 64 64 64-28.736 64-64-28.736-64-64-64z" />
<glyph unicode="&#xe270;" d="M960 0.32v512c0 35.328-28.672 64-64 64h-640.32l0.32 27.136c0 172.416 106.496 292.864 259.072 292.864 111.68 0 211.2-64.192 259.776-167.552 7.488-16 26.496-22.848 42.56-15.296 16 7.488 22.848 26.56 15.296 42.56-59.2 125.952-180.864 204.288-317.632 204.288-187.2 0-323.072-150.080-323.072-356.48l-0.32-27.52h-63.68c-35.328 0-64-28.672-64-64v-512c0-35.328 28.672-64 64-64h768c35.328 0 64 28.672 64 64zM128 512.32h768v-512h-768v512zM512 384.32c-70.72 0-128-57.28-128-128s57.28-128 128-128 128 57.28 128 128-57.28 128-128 128zM512 192.32c-35.264 0-64 28.736-64 64s28.736 64 64 64 64-28.736 64-64-28.736-64-64-64z" />
<glyph unicode="&#xe271;" d="M352 160.32c0 19.008-4.096 37.376-12.16 54.464-20.992 44.672-66.496 73.536-115.84 73.536-70.592 0-128-57.408-128-128 0-12.608 2.368-24.512 5.76-36.032 21.44-35.328 50.88-64.768 86.208-86.208 11.52-3.392 23.424-5.76 36.032-5.76 70.592 0 128 57.408 128 128zM224 224.32c24.704 0 47.424-14.464 57.984-36.8 3.968-8.512 6.016-17.664 6.016-27.2 0-35.264-28.736-64-64-64s-64 28.736-64 64 28.736 64 64 64zM992 960.32h-138.496c-7.552 0-14.848-2.688-20.672-7.552l-453.12-382.656c-20.864 4.16-40.512 6.208-59.712 6.208-176.448 0-320-143.552-320-320s143.552-320 320-320 320 143.552 320 320c0 33.664-5.376 66.944-16 99.2l97.408 63.296c9.088 5.888 14.592 16 14.592 26.816v116.288l121.664 6.4c15.872 0.832 28.672 13.184 30.144 28.992l11.648 123.264 106.304 50.816c11.2 5.376 18.24 16.64 18.24 28.928v128c0 17.664-14.336 32-32 32zM960 820.48l-104.448-49.92c-10.112-4.864-17.024-14.656-18.048-25.856l-10.752-113.856-124.416-6.528c-17.024-0.96-30.336-14.976-30.336-32v-129.28l-104.448-67.904c-12.992-8.448-18.112-25.024-12.032-39.296 13.632-32.064 20.48-65.536 20.48-99.52 0-141.184-114.816-256-256-256-48.448 0-93.312 14.272-132.032 37.76-35.328 21.44-64.768 50.88-86.208 86.208-23.488 38.72-37.76 83.584-37.76 132.032 0 141.184 114.816 256 256 256 18.88 0 38.72-2.624 60.672-7.936 9.92-2.432 20.416 0 28.224 6.656l456.32 385.28h94.784v-75.84z" />
<glyph unicode="&#xe272;" d="M832 448.32c-2.24 0-4.352-0.576-6.528-0.64 4.288 20.864 6.528 42.496 6.528 64.64 0 176.704-143.296 320-320 320s-320-143.296-320-320c0-1.088 0.32-2.112 0.32-3.2-108.544-15.488-192.32-107.968-192.32-220.8 0-112.768 83.584-205.12 192-220.8v-3.2h640c106.048 0 192 85.952 192 192s-85.952 192-192 192zM832 128.32h-619.904c-3.52 1.152-7.168 2.048-10.944 2.56-78.208 11.264-137.152 78.976-137.152 157.44 0 78.592 59.072 146.24 137.344 157.44 31.808 4.544 55.296 31.936 54.976 64 0 1.92-0.128 3.84-0.32 5.696 1.728 139.776 115.904 252.864 256 252.864 141.184 0 256-114.816 256-256 0-17.408-1.792-34.816-5.248-51.776-3.968-19.2 1.152-39.168 13.824-54.144 12.16-14.4 30.080-22.656 48.896-22.656 0.768 0 1.472 0 2.24 0.064 1.408-0.064 4.416 0.192 6.912 0.512 69.376-1.408 125.376-58.304 125.376-128 0-70.592-57.408-128-128-128z" />
<glyph unicode="&#xe273;" d="M833.664 448.384c-2.752 0-5.44 0-8.064-0.064 4.224 21.056 6.4 42.56 6.4 64 0 176.448-143.552 320-320 320-176.32 0-320-142.144-320.192-316.736 0-0.064 0.512-6.464 0.512-6.464v0c-109.632-15.68-192.32-110.592-192.32-220.8 0-111.744 80.512-207.872 192-224h160c17.664 0 32 14.336 32 32s-14.336 32-32 32l-155.328-0.32c-74.368 10.944-132.672 81.408-132.672 160.32 0 78.592 59.008 146.24 137.344 157.44l27.52 3.968c15.744 2.24 27.456 15.744 27.456 31.68l-0.512 34.048c0.192 139.456 115.072 252.864 256.192 252.864 141.184 0 256-114.816 256-256 0-17.344-1.728-34.816-5.248-51.776l-8.448-40.704c-2.112-10.176 0.896-20.672 7.936-28.288 7.040-7.552 17.152-11.456 27.648-9.856 0.704 0.064 20.736 2.688 43.776 2.688 69.696 0 126.336-57.408 126.336-128.064 0-70.592-57.408-128-128-128h-224c-89.6 0-95.68 53.696-96 64v212.352l75.712-75.648c12.48-12.48 32.768-12.48 45.248 0s12.48 32.768 0 45.248l-128.768 128.704c-6.272 6.272-14.528 9.344-22.784 9.344-0.512 0-0.896 0.256-1.408 0.256-9.216 0-17.344-3.968-23.168-10.176l-128.896-128.768c-12.48-12.48-12.48-32.768 0-45.248s32.768-12.48 45.248 0l74.816 74.752v-210.816c0-44.224 33.408-128 160-128h224c105.856 0 192 86.144 192 192s-85.376 192.064-190.336 192.064z" />
<glyph unicode="&#xe274;" d="M837.312 448.32c59.776 137.28 22.912 224.576-7.104 266.624-45.568 63.808-128.576 98.816-201.472 84.8-126.72-24.192-180.736-110.080-180.736-287.424v-148.096l-74.112 74.112c-12.48 12.48-32.768 12.48-45.248 0s-12.48-32.768 0-45.248l128.768-128.704c6.464-6.464 14.976-9.408 23.424-9.216 8.448-0.192 16.96 2.752 23.424 9.216l129.408 129.344c12.48 12.48 12.48 32.768 0 45.248s-32.768 12.48-45.248 0l-76.416-76.352v149.696c0 184.576 63.552 212.096 128.64 224.576 41.792 7.68 102.272-9.856 137.408-59.136 43.008-60.096 34.752-149.248-23.232-250.88-6.144-10.816-5.504-24.192 1.664-34.304s19.776-15.232 31.744-13.056c7.744 1.344 30.848 4.864 45.44 4.864 69.696 0 126.336-57.408 126.336-128.064 0-70.592-57.408-128-128-128l-635.328-0.384c-74.368 11.008-132.672 81.472-132.672 160.384 0 78.592 59.008 146.24 137.344 157.44l27.52 3.968c15.744 2.24 27.456 15.744 27.456 31.68l-0.512 34.048c0.192 114.624 70.848 208.832 168.192 224 17.408 2.752 29.376 19.072 26.688 36.544-2.752 17.472-18.688 29.312-36.608 26.688-128.64-20.032-222.080-140.8-222.272-287.104 0-0.064 0.512-6.464 0.512-6.464v0c-109.632-15.68-192.32-110.592-192.32-220.8 0-111.744 80.512-207.872 192-224h640c105.856 0 192 86.144 192 192 0 104.704-83.456 190.080-186.688 192z" />
<glyph unicode="&#xe275;" d="M551.296 586.304c0-49.167 39.857-89.024 89.024-89.024s89.024 39.857 89.024 89.024c0 49.167-39.857 89.024-89.024 89.024-49.167 0-89.024-39.857-89.024-89.024zM832 64.32h64v64 128 192l-256-192-320 256-192-192v-64-128-64h64zM960 832.32h-896c-35.328 0-64-28.672-64-64v-768c0-35.328 28.672-64 64-64h896c35.328 0 64 28.672 64 64v768c0 35.328-28.672 64-64 64zM960 0.32h-896v768h896v-768z" />
<glyph unicode="&#xe276;" d="M960 768.32h-64v128c0 35.328-28.672 64-64 64h-768c-35.328 0-64-28.672-64-64v-704c0-35.328 28.672-64 64-64h64v-128c0-35.328 28.672-64 64-64h768c35.328 0 64 28.672 64 64v704c0 35.328-28.672 64-64 64zM64 192.32v704h768v-704h-768zM960 0.32h-768v128h64v-64h640v64 64 192 320h64v-704zM473.28 698.304c0-49.167 39.857-89.024 89.024-89.024s89.024 39.857 89.024 89.024c0 49.167-39.857 89.024-89.024 89.024-49.167 0-89.024-39.857-89.024-89.024zM320 640.32l-192-128v-128-64-64h640v64 64 192l-256-128z" />
<glyph unicode="&#xe277;" d="M512 960.32c-211.712 0-384-172.288-384-384 0-123.776 60.16-240.64 161.024-312.64 1.536-1.088 3.136-2.112 4.736-3.072 23.424-13.76 25.728-58.112 25.216-66.24-0.064-1.344-0.128-2.688-0.128-3.968v-126.080c0-24.064 13.44-46.016 34.88-56.96l129.152-65.984c9.152-4.672 19.136-7.040 29.12-7.040 9.92 0 19.776 2.304 28.864 6.848l130.688 65.984c21.568 10.88 35.136 32.96 35.136 57.152v125.312c0 63.168 38.592 84.032 38.976 84.224 5.12 2.368 9.856 5.44 14.144 9.088 86.528 73.216 136.192 180.096 136.192 293.376 0 211.712-172.288 384-384 384zM382.848 190.336c0 0 0 1.28 0.064 1.984h259.968c0-0.96-0.256-1.664-0.256-2.688 0-25.152 0-45.056 0-61.312h-259.776v62.016zM512-1.664l-129.088 65.984h259.776l-130.688-65.984zM718.464 331.84c0 0-42.88-20.16-64.128-75.52h-281.728c-7.936 22.144-21.696 44.928-46.4 59.456-81.216 57.984-134.208 153.088-134.208 260.544 0 176.704 143.296 320 320 320s320-143.296 320-320c0-98.048-44.096-185.792-113.536-244.48zM544 832.32c-17.664 0-32-14.336-32-32s14.336-32 32-32c72 0 160-65.472 160-163.008 0-17.664 14.336-32 32-32s32 14.336 32 32c0 145.984-113.984 227.008-224 227.008z" />
<glyph unicode="&#xe278;" d="M960 704.32h-896c-35.328 0-64-28.672-64-64v-192h64v-448c0-35.328 28.672-64 64-64h768c35.328 0 64 28.672 64 64v448h64v192c0 35.328-28.672 64-64 64zM64 640.32h384v-128h-384v128zM128 0.32v448h320v-448h-320zM896 0.32h-318.656v448h318.656v-448zM960 512.32h-382.656v128h382.656v-128zM512 768.32c0 0.128-0.064 0.384-0.064 0.512h0.192c-0.064-0.128-0.128-0.384-0.128-0.512 0 0 167.616 0 256 0 88.384 0 128 43.008 128 96s-39.616 96-128 96c-82.752 0-147.904-37.248-192-80.448-19.328 11.456-41.664 18.432-65.856 18.432-23.168 0-44.608-6.528-63.424-17.152-44.032 42.688-108.8 79.168-190.72 79.168-88.384 0-128-43.008-128-96s39.616-96 128-96c88.384 0 256 0 256 0zM832 864.32c0-26.432-34.816-32-64-32h-145.344c-0.512 0.896-0.96 1.856-1.472 2.688 32.512 31.616 81.792 61.312 146.816 61.312 29.184 0 64-5.568 64-32zM192 864.32c0 26.432 34.816 32 64 32 63.616 0 111.872-28.48 144.384-59.008-1.024-1.6-1.792-3.328-2.752-4.992h-141.632c-29.184 0-64 5.568-64 32z" />
<glyph unicode="&#xe279;" d="M81.408 171.328c15.36-23.872 47.616-52.288 114.176-52.288 41.856 0 95.424 12.224 155.072 33.536 25.792-113.664 73.216-216.256 161.344-216.256 89.6 0 137.216 106.112 162.688 222.144 59.776-20.224 113.536-31.872 155.584-31.872 70.4 0 103.424 29.952 118.784 55.040 49.664 81.408-27.84 184.768-121.408 270.208 17.28 16.64 33.536 33.28 47.808 49.472 80.896 92.096 103.488 167.424 67.136 224-15.36 23.872-47.616 52.288-114.176 52.288v0c-41.856 0-95.424-12.224-155.072-33.536-25.792 113.664-73.216 216.256-161.344 216.256-89.6 0-137.216-106.112-162.688-222.144-59.776 20.288-113.536 31.872-155.584 31.872v0c-70.4 0-103.488-29.952-118.784-55.040-49.664-81.408 27.84-184.768 121.408-270.208-17.28-16.704-33.536-33.28-47.808-49.472-80.896-92.096-103.488-167.488-67.136-224zM512 0.32c-41.408 0-78.144 69.184-101.568 176 33.664 14.528 68.48 31.488 104.128 50.88 34.176-17.536 67.584-32.832 99.968-46.144-23.296-109.504-60.48-180.736-102.528-180.736zM384 448.32c0 23.488 0.704 46.4 1.664 68.928 18.432 13.056 37.312 25.984 57.088 38.72 22.72 14.592 45.184 28.032 67.456 40.832 22.592-12.288 45.376-25.152 68.416-39.168 20.608-12.608 40.384-25.472 59.584-38.4 1.088-23.168 1.792-46.72 1.792-70.912 0-23.488-0.704-46.4-1.664-68.928-18.432-13.056-37.312-25.984-57.088-38.72-22.72-14.592-45.184-28.032-67.456-40.832-22.592 12.288-45.376 25.152-68.416 39.168-20.608 12.608-40.384 25.472-59.584 38.4-1.088 23.168-1.792 46.72-1.792 70.912zM320.32 424.256c-9.408 7.168-18.624 14.336-27.456 21.44 8.832 7.488 17.984 14.976 27.328 22.464-0.128-8.576-0.192-15.808-0.192-19.84 0-4.672 0.128-13.504 0.32-24.064zM391.488 598.464c1.856 18.176 4.032 35.776 6.528 52.8 14.592-6.208 29.504-13.056 44.736-20.224-11.52-7.040-23.040-13.76-34.624-21.184-5.76-3.776-10.944-7.68-16.64-11.392zM576.96 632.64c16.512 8.32 32.64 16.064 48.448 23.168 2.688-18.112 4.992-36.992 6.976-56.384-8.896 5.696-16.384 10.368-20.352 12.8-11.712 7.168-23.424 13.632-35.072 20.416zM703.68 472.384c9.408-7.168 18.624-14.336 27.456-21.44-8.832-7.488-17.984-14.912-27.392-22.464 0.192 8.576 0.256 15.808 0.256 19.84 0 4.672-0.128 13.504-0.32 24.064zM632.512 298.176c-1.856-18.176-3.968-35.84-6.464-52.8-14.592 6.208-29.568 13.056-44.736 20.224 11.52 7.040 23.040 13.76 34.624 21.184 5.696 3.776 10.88 7.68 16.576 11.392zM411.968 284.416c11.712-7.168 23.36-13.632 35.072-20.416-16.512-8.32-32.64-16.064-48.448-23.168-2.688 18.048-4.992 36.928-6.976 56.384 8.896-5.632 16.384-10.368 20.352-12.8zM894.4 214.976c-10.112-16.512-32.512-24.384-64.128-24.384-36.928 0-86.784 11.264-143.616 31.232 6.784 43.904 11.008 86.784 13.504 123.392 28.608 21.12 55.040 42.496 80.064 64 90.304-81.984 137.28-156.416 114.176-194.24zM828.416 713.6c29.312 0 50.368-7.36 60.352-22.912 24-37.312-21.312-112.896-109.76-197.056-27.52 22.4-54.656 42.88-79.104 60.224-2.624 37.76-6.976 81.792-14.208 126.784 56.768 21.056 106.368 32.96 142.72 32.96zM512 896.32c41.408 0 78.144-69.184 101.568-176-33.664-14.528-68.48-31.488-104.128-50.88-34.24 17.536-67.648 32.896-99.968 46.144 23.296 109.504 60.48 180.736 102.528 180.736zM129.6 681.664c10.112 16.512 32.512 24.384 64.128 24.384 36.928 0 86.784-11.264 143.616-31.232-6.848-43.904-11.008-86.72-13.504-123.392-28.608-21.12-55.040-42.496-80.064-64-90.304 81.984-137.28 156.416-114.176 194.24zM324.032 342.848c2.624-37.76 6.976-81.792 14.208-126.784-56.704-21.056-106.304-32.96-142.656-32.96-29.312 0-50.368 7.36-60.352 22.912-24 37.312 21.312 112.896 109.76 197.056 27.456-22.4 54.592-42.944 79.040-60.224z" />
<glyph unicode="&#xe27a;" d="M768-63.68c35.328 0 64 28.672 64 64v896c0 35.328-28.672 64-64 64h-448c-35.328 0-64-28.672-64-64v-896c0-35.328 28.672-64 64-64h448zM512 36.288c0 19.904 16.128 35.968 35.968 35.968s35.968-16.128 35.968-35.968-16.064-35.968-35.968-35.968-35.968 16.128-35.968 35.968zM672 896.32c17.664 0 32-14.336 32-32s-14.336-32-32-32h-64c-17.664 0-32 14.336-32 32s14.336 32 32 32h64zM512 864.32c0-17.664-14.336-32-32-32s-32 14.336-32 32c0 17.664 14.336 32 32 32s32-14.336 32-32zM320 768.32h448v-640h-448v640z" />
<glyph unicode="&#xe27b;" d="M832-63.68c35.328 0 64 28.672 64 64v896c0 35.328-28.672 64-64 64h-640c-35.328 0-64-28.672-64-64v-896c0-35.328 28.672-64 64-64h640zM512-35.648c-19.904 0-35.968 16.128-35.968 35.968s16.064 35.968 35.968 35.968 35.968-16.064 35.968-35.968-16.064-35.968-35.968-35.968zM256 832.32h512v-768h-512v768z" />
<glyph unicode="&#xe27c;" d="M990.976 192.32h-30.976v576c0 35.328-28.672 64-64 64h-768c-35.328 0-64-28.672-64-64v-576h-30.976c-18.24 0-33.024-14.336-33.024-32s14.784-32 33.024-32h957.952c18.24 0 33.024 14.336 33.024 32s-14.784 32-33.024 32zM896 768.32v-509.312h-768v509.312h768z" />
<glyph unicode="&#xe27d;" d="M960 896.32h-896c-35.328 0-64-28.672-64-64v-576c0-35.328 28.672-64 64-64h319.936c-0.128-46.272-1.984-106.368-19.52-128h-12.928c-17.408 0-31.488-14.336-31.488-32s14.080-32 31.488-32h320.96c17.472 0 31.552 14.336 31.552 32s-14.080 32-31.488 32h-12.928c-17.6 21.632-19.392 81.728-19.52 128h319.936c35.328 0 64 28.672 64 64v576c0 35.328-28.672 64-64 64zM448 192.32l-0.064-0.128c0 0.064 0 0.064 0.064 0.128v0zM576.064 192.192l-0.064 0.128h0.064c0-0.064 0-0.064 0-0.128zM960 320.32h-896v512h896v-512z" />
<glyph unicode="&#xe27e;" d="M960 640.32h-128c0 0-36.992 0-64 64-13.76 32.576-28.672 64-64 64h-256c-35.328 0-50.688-31.232-64-64-25.984-64-64-64-64-64h-64c0 35.328-28.672 64-64 64h-64c-35.328 0-64-28.672-64-64-35.328 0-64-28.672-64-64v-512c0-35.328 28.672-64 64-64h896c35.328 0 64 28.672 64 64v264 56 192c0 35.328-28.672 64-64 64zM960 64.32h-896v256h291.2c15.68-108.416 108.032-192 220.8-192 115.52 0 209.472 87.744 221.568 200h162.432v-264zM416 352.32c0 88.256 71.808 160 160 160s160-71.744 160-160c0-88.192-71.808-160-160-160s-160 71.808-160 160zM796.8 384.32c-15.68 108.416-108.032 192-220.8 192s-205.12-83.584-220.8-192h-291.2v192h256c37.376 0 92.16 27.2 123.264 103.936 5.312 12.992 8.896 20.16 11.264 24.064h242.688c4.288-7.040 9.792-20.032 11.84-24.896 41.408-98.112 109.696-103.104 122.944-103.104h128v-192h-163.2zM128 479.68c0-17.673 14.327-32 32-32s32 14.327 32 32c0 17.673-14.327 32-32 32-17.673 0-32-14.327-32-32z" />
<glyph unicode="&#xe27f;" d="M960 704.32h-896c-35.328 0-64-28.672-64-64v-640c0-35.328 28.672-64 64-64h896c35.328 0 64 28.672 64 64v640c0 35.328-28.672 64-64 64zM363.52 254.592l148.608-100.992 147.712 101.696 254.912-254.976h-805.504l254.272 254.272zM64 45.568v412.672l245.632-166.976-245.632-245.696zM713.408 292.16l246.592 169.728v-416.32l-246.592 246.592zM960 640.32v-103.552l-1.344 1.92-446.784-307.648-447.872 304.512v104.768h896z" />
<glyph unicode="&#xe280;" d="M798.912 320.32l-24.256 64h-525.312l-24.256-64-97.088-256h768l-97.088 256zM293.568 320.32h436.928l72.832-192h-582.592l72.832 192zM657.664 512.32h68.48l-24.256 64-130.176 343.104c-9.536 24.64-33.28 40.896-59.712 40.896s-50.176-16.256-59.712-40.896l-154.368-407.104h359.744zM512 896.32l121.344-320h-242.688l121.344 320zM991.488 0.32h-958.976c-17.984 0-32.512-13.568-32.512-31.488s14.528-32.512 32.512-32.512h958.976c17.984 0 32.512 14.528 32.512 32.512s-14.528 31.488-32.512 31.488z" />
<glyph unicode="&#xe281;" d="M167.488-58.816c7.936-3.264 16.256-4.864 24.512-4.864 16.64 0 33.024 6.528 45.248 18.752l274.752 274.752 274.752-274.752c12.224-12.224 28.608-18.752 45.248-18.752 8.256 0 16.576 1.6 24.448 4.864 23.936 9.92 39.552 33.28 39.552 59.136v896c0 35.328-28.672 64-64 64h-640c-35.328 0-64-28.672-64-64v-896c0-25.856 15.616-49.216 39.488-59.136zM512 320.32l-320-320v704h640v-704l-320 320zM832 896.32v-128h-640v128h640z" />
<glyph unicode="&#xe282;" d="M192-63.68h640c35.328 0 64 28.672 64 64v704c0 35.328-28.672 64-64 64h-128.32c-1.536 106.304-86.656 192-191.68 192s-190.144-85.696-191.68-192h-128.32c-35.328 0-64-28.672-64-64v-704c0-35.328 28.672-64 64-64zM832 704.32v-704h-640v704h640zM512 896.32c69.568 0 126.144-57.152 127.68-128h-255.36c1.536 70.848 58.112 128 127.68 128zM416 576.32h192c17.664 0 32 14.336 32 32s-14.336 32-32 32h-192c-17.664 0-32-14.336-32-32s14.336-32 32-32z" />
<glyph unicode="&#xe283;" d="M960 832.32h-896c-35.328 0-64-28.672-64-64v-130.688-125.312-384c0-35.328 28.672-64 64-64h896c35.328 0 64 28.672 64 64v384 125.312 130.688c0 35.328-28.672 64-64 64zM960 128.32h-896v384h896v-384zM64 637.632v130.688h896v-130.688h-896zM160 192.32h320c17.664 0 32 14.336 32 32s-14.336 32-32 32h-320c-17.664 0-32-14.336-32-32s14.336-32 32-32zM576 224.32c0-17.673 14.327-32 32-32s32 14.327 32 32c0 17.673-14.327 32-32 32-17.673 0-32-14.327-32-32zM704 224.32c0-17.673 14.327-32 32-32s32 14.327 32 32c0 17.673-14.327 32-32 32-17.673 0-32-14.327-32-32zM832 224.32c0-17.673 14.327-32 32-32s32 14.327 32 32c0 17.673-14.327 32-32 32-17.673 0-32-14.327-32-32z" />
<glyph unicode="&#xe284;" d="M192 0.32c0-35.346 28.654-64 64-64s64 28.654 64 64c0 35.346-28.654 64-64 64-35.346 0-64-28.654-64-64zM768 0.32c0-35.346 28.654-64 64-64s64 28.654 64 64c0 35.346-28.654 64-64 64-35.346 0-64-28.654-64-64zM-1.856 800.32c0-17.664 14.336-32 32-32h66.496l39.744-169.984 55.616-278.016c0-2.304 1.088-4.288 1.344-6.528l-32.576-146.56c-2.112-9.472 0.192-19.392 6.272-26.944 6.080-7.616 15.232-11.968 24.96-11.968h726.016c17.664 0 32 14.336 32 32s-14.336 32-32 32h-686.080l14.656 65.92c3.2-0.512 6.080-1.92 9.408-1.92h583.36c35.328 0 56.64 6.976 73.664 48l103.936 318.848c18.048 57.152-21.568 81.152-56.96 81.152h-768c-4.992 0-9.344-1.728-14.016-2.816l-24.832 106.112c-3.392 14.464-16.256 24.704-31.168 24.704h-91.84c-17.728 0-32-14.336-32-32zM193.28 640.32h761.92l-102.144-313.536c-1.216-2.752-2.24-4.736-3.008-6.080-2.112-0.192-5.44-0.384-10.688-0.384h-583.36v6.336l-1.216 6.208-61.504 307.456z" />
<glyph unicode="&#xe285;" d="M1020.288 546.048c-7.552 23.168-27.584 40.064-51.648 43.584l-275.84 40.064-123.392 249.92c-10.816 21.888-33.024 35.712-57.408 35.712s-46.592-13.824-57.408-35.712l-123.328-249.92-275.84-40.064c-24.128-3.52-44.16-20.416-51.648-43.584-7.552-23.168-1.28-48.576 16.192-65.6l199.616-194.56-47.104-274.752c-4.096-24 5.76-48.256 25.472-62.592 11.072-8.128 24.256-12.224 37.568-12.224 10.176 0 20.416 2.432 29.76 7.36l246.72 129.728 246.72-129.728c9.344-4.928 19.584-7.36 29.76-7.36 13.248 0 26.496 4.096 37.632 12.224 19.712 14.336 29.568 38.592 25.472 62.592l-47.104 274.752 199.616 194.56c17.408 16.96 23.68 42.432 16.192 65.6zM735.68 308.224l52.8-307.904-276.48 145.344-276.48-145.344 52.8 307.904-223.68 218.048 309.12 44.928 138.24 280.128 138.24-280.128 309.12-44.928-223.68-218.048z" />
<glyph unicode="&#xe286;" d="M1020.288 546.048c-7.552 23.168-27.584 40.064-51.712 43.52l-275.84 40.064-123.328 249.984c-10.816 21.888-33.024 35.712-57.408 35.712s-46.592-13.824-57.408-35.712l-123.328-249.92-275.84-40.064c-24.128-3.52-44.16-20.416-51.648-43.584-7.552-23.168-1.28-48.576 16.192-65.6l199.616-194.56-47.104-274.752c-4.096-24 5.76-48.256 25.472-62.592 11.072-8.128 24.256-12.224 37.568-12.224 10.176 0 20.416 2.432 29.76 7.36l246.72 129.728 246.72-129.728c9.344-4.928 19.584-7.36 29.76-7.36 13.248 0 26.496 4.096 37.632 12.224 19.712 14.336 29.568 38.592 25.472 62.592l-47.104 274.752 199.616 194.56c17.472 17.024 23.744 42.432 16.192 65.6zM735.68 308.224l52.8-307.904-276.48 145.344v705.664l138.24-280.128 309.12-44.928-223.68-218.048z" />
<glyph unicode="&#xe287;" d="M664.192 583.744l-156.8 317.696-156.8-317.696-350.592-50.944 253.696-247.296-59.904-349.184 313.6 164.864 313.6-164.864-59.904 349.184 253.696 247.296z" />
<glyph unicode="&#xe288;" d="M512 101.184v800.256l-156.8-317.696-350.592-50.944 253.696-247.296-59.904-349.184z" />
<glyph unicode="&#xe289;" d="M27.136 99.2c-37.504-37.504-37.504-98.24 0-135.744 18.752-18.752 43.328-28.096 67.904-28.096 24.576 0 49.152 9.344 67.904 28.096l315.2 315.2-135.808 135.744-315.2-315.2zM814.912 683.392l137.152 70.976 71.936 138.944-67.008 67.008-138.944-71.936-70.976-137.152-167.168-167.168 67.84-67.84zM844.928 319.040c-4.352 0.256-8.512 1.28-12.928 1.28-23.424 0-45.632-4.8-66.368-12.48l-394.112 394.112c7.68 20.736 12.48 42.944 12.48 66.368 0 4.416-1.024 8.576-1.28 12.928-6.784 99.904-89.088 179.072-190.72 179.072-29.568 0-57.28-7.232-82.304-19.2l127.552-127.552c6.72-6.72 11.328-14.656 14.4-23.040 8.384-22.72 3.84-49.152-14.4-67.456-12.48-12.48-28.864-18.752-45.248-18.752-7.552 0-15.040 1.664-22.208 4.352-8.384 3.136-16.32 7.68-23.040 14.4l-127.552 127.552c-11.968-25.024-19.2-52.736-19.2-82.304 0-101.632 79.168-183.936 179.072-190.72 4.352-0.256 8.512-1.28 12.928-1.28 23.424 0 45.632 4.8 66.368 12.48l394.112-394.112c-7.68-20.736-12.48-42.944-12.48-66.368 0-4.416 1.024-8.576 1.28-12.928 6.784-99.904 89.088-179.072 190.72-179.072 29.568 0 57.28 7.232 82.304 19.2l-127.552 127.552c-6.72 6.72-11.328 14.656-14.4 23.040-8.384 22.72-3.84 49.152 14.4 67.456 12.48 12.48 28.864 18.752 45.248 18.752 7.552 0 15.040-1.664 22.208-4.352 8.384-3.136 16.32-7.68 23.040-14.4l127.552-127.552c11.968 25.024 19.2 52.736 19.2 82.304 0 101.632-79.168 183.936-179.072 190.72z" />
<glyph unicode="&#xe28a;" d="M832 192.32c7.552 0 15.040-1.664 22.208-4.352 8.384-3.136 16.32-7.68 23.040-14.4l127.552-127.552c11.968 25.024 19.2 52.736 19.2 82.304 0 101.632-79.168 183.936-179.072 190.72-4.352 0.256-8.512 1.28-12.928 1.28-23.424 0-45.632-4.8-66.368-12.48l-394.112 394.112c7.68 20.736 12.48 42.944 12.48 66.368 0 4.416-1.024 8.576-1.28 12.928-6.784 99.904-89.088 179.072-190.72 179.072-29.568 0-57.28-7.232-82.304-19.2l127.552-127.552c6.72-6.72 11.328-14.656 14.4-23.040 8.384-22.72 3.84-49.152-14.4-67.456-12.48-12.48-28.864-18.752-45.248-18.752-7.552 0-15.040 1.664-22.208 4.352-8.384 3.136-16.32 7.68-23.040 14.4l-127.552 127.552c-11.968-25.024-19.2-52.736-19.2-82.304 0-101.632 79.168-183.936 179.072-190.72 4.352-0.256 8.512-1.28 12.928-1.28 23.424 0 45.632 4.8 66.368 12.48l394.112-394.112c-7.68-20.736-12.48-42.944-12.48-66.368 0-4.416 1.024-8.576 1.28-12.928 6.784-99.904 89.088-179.072 190.72-179.072 29.568 0 57.28 7.232 82.304 19.2l-127.552 127.552c-6.72 6.72-11.328 14.656-14.4 23.040-8.384 22.72-3.84 49.152 14.4 67.456 12.48 12.48 28.864 18.752 45.248 18.752z" />
<glyph unicode="&#xe28b;" d="M880.832 554.496c-8.064 28.032-19.008 54.72-32.896 79.744l63.616 133.824c-23.616 29.44-50.368 56.192-79.808 79.808l-133.824-63.616c-24.96 13.824-51.712 24.832-79.744 32.896l-49.792 139.904c-18.496 2.048-37.312 3.264-56.384 3.264s-37.888-1.216-56.384-3.264l-49.792-139.904c-27.968-8.064-54.72-19.072-79.68-32.896l-133.888 63.616c-29.44-23.616-56.192-50.368-79.808-79.808l63.616-133.824c-13.824-24.96-24.832-51.712-32.896-79.744l-139.904-49.792c-2.048-18.496-3.264-37.312-3.264-56.384s1.216-37.888 3.264-56.384l139.968-49.792c8.064-28.032 19.008-54.72 32.896-79.744l-63.616-133.824c23.616-29.44 50.368-56.256 79.808-79.808l133.824 63.616c24.96-13.824 51.712-24.832 79.744-32.896l49.792-139.968c18.432-1.984 37.248-3.2 56.32-3.2s37.888 1.216 56.384 3.264l49.792 139.968c28.032 8.064 54.72 19.008 79.744 32.896l133.824-63.616c29.44 23.616 56.256 50.368 79.808 79.808l-63.616 133.824c13.824 24.96 24.832 51.712 32.896 79.744l139.968 49.792c1.984 18.432 3.2 37.248 3.2 56.32s-1.216 37.888-3.264 56.384l-139.904 49.792zM512 192.32c-141.376 0-256 114.624-256 256s114.624 256 256 256 256-114.624 256-256c0-141.376-114.624-256-256-256zM384 448.32c0-70.692 57.308-128 128-128s128 57.308 128 128c0 70.692-57.308 128-128 128-70.692 0-128-57.308-128-128z" />
<glyph unicode="&#xe28c;" d="M31.296 409.984l111.040 4.096c13.12-17.024 28.288-32.512 45.184-46.336l-7.296-111.168c12.16-6.912 24.704-13.312 37.888-19.008 13.12-5.696 26.432-10.368 39.808-14.528l75.84 81.6c21.696-2.752 43.328-3.136 64.64-1.024l73.28-83.584c27.328 7.488 53.696 17.984 78.656 31.296l-4.032 111.104c16.96 13.12 32.448 28.288 46.272 45.184l111.168-7.296c6.912 12.16 13.312 24.704 19.008 37.888 5.696 13.12 10.368 26.432 14.528 39.808l-81.6 75.84c2.752 21.696 3.136 43.328 1.024 64.64l83.584 73.28c-7.488 27.328-17.984 53.696-31.296 78.656l-111.104-4.032c-13.12 16.96-28.288 32.448-45.184 46.272l7.296 111.168c-12.16 6.912-24.704 13.312-37.888 19.008-13.12 5.632-26.432 10.368-39.808 14.464l-75.776-81.6c-21.696 2.752-43.328 3.136-64.64 1.024l-73.344 83.584c-27.328-7.488-53.696-17.984-78.656-31.296l4.032-111.040c-16.96-13.12-32.448-28.224-46.272-45.12l-111.168 7.232c-6.912-12.16-13.312-24.704-19.008-37.888-5.632-13.12-10.368-26.432-14.464-39.808l81.6-75.84c-2.752-21.696-3.136-43.328-1.024-64.64l-83.584-73.28c7.488-27.264 17.984-53.696 31.296-78.656zM446.144 766.528c97.344-41.984 142.272-154.944 100.288-252.352s-154.944-142.272-252.352-100.288-142.272 154.944-100.288 252.352 154.944 142.272 252.352 100.288zM274.112 590.208c0-53.019 42.981-96 96-96s96 42.981 96 96c0 53.019-42.981 96-96 96-53.019 0-96-42.981-96-96zM961.344 206.784l-26.496 9.408 12.096 25.472 27.84 58.56c-10.304 12.864-22.016 24.576-34.944 34.944l-84.032-39.936-9.408 26.496-21.76 61.248c-8.064 0.832-16.32 1.344-24.64 1.344s-16.576-0.512-24.704-1.408l-31.168-87.744-84.032 39.936c-12.864-10.304-24.576-22.016-34.944-34.944l39.936-84.032-87.744-31.168c-0.832-8.064-1.344-16.32-1.344-24.64s0.512-16.576 1.408-24.64l87.744-31.168-12.096-25.472-27.84-58.56c10.304-12.864 22.016-24.576 34.944-34.944l84.032 39.936 9.408-26.496 21.76-61.248c8.064-0.896 16.32-1.408 24.64-1.408s16.576 0.512 24.704 1.408l31.168 87.744 84.032-39.936c12.864 10.304 24.576 22.016 34.944 34.944l-39.936 84.032 87.744 31.168c0.832 8.064 1.344 16.32 1.344 24.64s-0.512 16.576-1.408 24.704l-61.248 21.76zM800 112.32c-26.496 0-48 21.504-48 48s21.504 48 48 48 48-21.504 48-48c0-26.496-21.504-48-48-48z" />
<glyph unicode="&#xe28d;" d="M305.856 830.528c37.44 37.44 98.304 37.44 135.744 0l343.232-343.232c16.896 63.936 1.088 134.72-49.024 184.832l-226.304 226.24c-75.008 75.008-196.544 75.008-271.552 0l-50.88-50.88c-75.008-75.008-75.008-196.544 0-271.552l226.304-226.304c50.112-50.112 120.896-65.92 184.832-49.024l-343.232 343.232c-37.44 37.44-37.44 98.304 0 135.744l50.88 50.944zM514.496-1.728c75.008-75.008 196.544-75.008 271.552 0l50.88 50.944c75.008 75.008 75.008 196.544 0 271.552l-226.304 226.176c-50.112 50.112-120.896 65.92-184.832 49.024l343.232-343.232c37.44-37.44 37.44-98.304 0-135.744l-50.944-50.944c-37.44-37.44-98.304-37.44-135.744 0l-343.168 343.296c-16.896-63.936-1.088-134.72 49.024-184.832l226.304-226.24z" />
</font>
</defs>
</svg>
